<svg width="108" height="85" viewBox="0 0 108 85" fill="none" xmlns="http://www.w3.org/2000/svg">
<path fill-rule="evenodd" clip-rule="evenodd" d="M27.0596 47.2135C27.6667 51.8191 28.2781 56.4246 28.8938 61.0302L29.3846 64.7431C29.4492 65.2089 29.3846 66.1403 29.6301 66.5543C29.7205 66.6966 29.9401 66.7742 30.0951 66.8648C30.6505 67.1623 31.2189 67.4728 31.7743 67.7704C36.5019 70.319 41.2339 72.8633 45.9701 75.4032C50.5169 77.8483 55.0594 80.2891 59.5976 82.7256C60.0626 82.9843 60.8247 83.6312 61.3285 83.463C61.8064 83.2948 62.2973 82.8938 62.7365 82.635L65.2553 81.1602C70.3446 78.1717 75.4296 75.1876 80.5103 72.2078C82.6029 70.9788 84.7084 69.7498 86.8009 68.5078C87.3693 68.1714 87.9505 67.8351 88.5189 67.4987C88.816 67.3176 88.8547 67.3305 88.971 67.033C89.4102 65.9204 89.6168 64.6396 89.9268 63.4753C90.2756 62.1945 90.6115 60.9138 90.9602 59.6459C91.1152 59.0767 91.0377 58.9991 90.7923 58.4557C90.3014 57.369 89.7977 56.2694 89.3068 55.1827C88.2089 52.7635 87.1066 50.3442 86.0001 47.925C85.5609 46.9418 84.4888 46.2561 83.7138 45.5446L71.7267 34.367C71.4167 34.0824 71.1196 33.7978 70.8096 33.5132C70.7579 35.2209 70.4221 37.0579 70.913 38.7009C71.7267 41.4048 72.5276 44.1086 73.3414 46.8124C73.7289 48.1191 74.1293 49.4257 74.5168 50.7323C74.5943 50.9782 75.0335 51.9355 74.9172 52.1554C74.8527 52.2719 74.2972 52.3883 74.168 52.44C73.6514 52.6341 73.1218 52.8411 72.6051 53.0351C71.1584 53.5914 69.6988 54.1348 68.252 54.6911C66.9474 55.1827 65.6428 55.6872 64.3382 56.1788C63.899 56.347 63.3823 56.6575 62.9044 56.6316C62.491 56.6057 62.0131 56.3988 61.6127 56.2953C60.9022 56.1141 60.1918 55.933 59.4814 55.739L55.2962 54.6523C53.7204 54.2512 52.4028 53.061 51.0594 52.1813C48.7473 50.6676 46.4394 49.1539 44.1359 47.6404C43.6063 47.2911 43.6063 47.097 43.3996 46.4631C42.9217 45.0401 42.4567 43.617 41.9788 42.1939C41.7204 41.4306 41.4104 40.6673 41.2296 39.8911C40.9196 38.6104 40.7258 37.2779 40.4804 35.9842C40.4029 35.596 40.3254 35.195 40.2608 34.8069C39.292 35.195 38.3232 35.596 37.3545 35.9842C37.2124 36.0359 36.5278 36.217 36.4761 36.3464C36.4373 36.4369 36.644 36.838 36.6699 36.9156L39.0724 44.0568C39.3308 44.8072 39.5762 45.5575 39.8345 46.3079C39.2274 45.3635 38.6332 44.4061 38.0261 43.4617C37.5482 45.053 37.0832 46.6572 36.6053 48.2484C35.4815 46.9547 34.3706 45.661 33.2468 44.3673L32.0843 48.2484C30.883 46.6572 29.6688 45.053 28.4675 43.4617C28.3254 44.2897 28.1834 45.1306 28.0413 45.9586C28.0025 46.2044 28.0025 46.9289 27.8346 47.1359C27.7054 47.2911 27.3179 47.2135 27.0596 47.2135Z" fill="#F5F5F5"/>
<path fill-rule="evenodd" clip-rule="evenodd" d="M103.386 57.1621C103.322 59.3356 103.361 62.1429 102.185 64.0446C101.991 64.3551 101.345 65.3125 101.268 64.4716C101.203 63.6436 101.397 62.8286 101.203 61.9877C101.1 61.5349 100.738 60.5646 100.118 60.9656C99.8083 61.1726 99.7179 61.6772 99.6017 62.0006C99.4208 62.4793 99.2142 62.945 99.0204 63.4107C98.3487 65.0537 97.6512 67.0201 96.1657 68.1069C96.3595 66.6838 96.8891 65.1702 96.5403 63.7341C96.4241 63.2425 96.0495 62.3499 95.4165 62.6345C94.7965 62.9191 94.3961 64.1611 94.099 64.7174C93.2077 66.3992 92.3035 68.0551 91.3089 69.6722C90.8225 70.4814 90.2509 71.2361 89.6039 71.9233C89.1905 72.3631 88.6739 73.1005 88.028 73.1652C88.028 71.9233 88.4413 70.7201 88.803 69.5558C89.2034 68.3009 89.5651 67.0331 89.9656 65.7653C90.3014 64.6656 90.5856 63.5918 90.8181 62.4663C90.9085 62.0006 90.986 61.5219 91.3864 61.2244C91.7352 60.9527 92.3035 60.8233 92.6911 60.6293C93.7474 60.1143 94.7738 59.5399 95.7653 58.9086C96.1657 58.6499 96.5016 58.3006 96.9149 58.0677C97.3833 57.8195 97.8363 57.543 98.2712 57.2398C100.157 55.8167 101.862 54.0573 102.999 51.9744C103.18 52.8153 103.425 53.6303 103.464 54.4971C103.464 55.3898 103.412 56.2824 103.386 57.1621ZM87.8601 67.1236C87.563 66.6191 87.098 66.8261 86.6975 67.0719C86.0646 67.46 85.4446 67.8352 84.8117 68.2104C83.52 68.9736 82.267 69.7887 81.014 70.6037C78.4565 72.2596 75.8085 73.618 73.1217 75.0152C70.5125 76.3736 68.0195 77.9907 65.5782 79.6208C64.9969 80.0089 64.4027 80.41 63.8473 80.8369C63.3435 81.212 62.9431 81.7425 62.4264 82.0788C61.8839 82.4281 61.4964 82.1435 60.9797 81.8848C60.3209 81.5613 59.6363 81.2897 58.9646 81.0051C56.265 79.8278 53.5524 78.6117 50.9173 77.2792C48.3081 75.9596 45.828 74.4331 43.3221 72.9065C42.1337 72.182 40.9583 71.4187 39.7828 70.6684C38.5299 69.8663 37.2382 69.2712 35.9206 68.5985C35.3394 68.3009 34.8227 67.8869 34.2285 67.6152C33.5956 67.3306 32.9368 67.1236 32.3813 66.7097C32.123 66.5285 31.9163 66.3086 31.6322 66.1663C31.3997 66.0628 31.1284 66.0369 30.8959 65.9205C30.418 65.6876 30.2888 65.2219 30.1984 64.7303C29.6042 61.5866 29.2942 58.3524 28.9454 55.1569C28.7517 53.3716 28.5321 51.5863 28.2737 49.801C28.1575 48.9989 28.39 48.3779 28.5191 47.5888C28.6612 46.6702 28.7258 45.7517 28.8292 44.8332C29.2942 45.7 29.7075 46.6185 30.3017 47.4076C30.7409 47.9898 31.4901 48.8178 32.3038 48.8048C33.5568 48.779 33.5051 46.6185 33.5568 45.7646C34.1251 46.2821 34.306 47.1101 34.7839 47.7052C35.2231 48.2485 35.8044 48.9213 36.4761 49.1671C37.884 49.6846 37.7419 47.0713 37.6644 46.3339C37.6257 45.9587 37.419 45.3765 37.9098 45.5447C38.3619 45.7 38.814 46.3468 39.2015 46.6444C39.8603 47.1618 40.5966 47.5758 41.2683 48.0674C42.1079 48.6755 43.025 49.1153 43.8904 49.6716C44.433 50.0209 45.0142 50.0985 45.6084 50.3702C46.4738 50.7454 47.223 51.3146 48.0497 51.7803C49.7012 52.706 51.4407 53.4644 53.2424 54.0443C53.8107 54.2254 54.5858 54.7171 55.012 54.2125C55.2833 53.902 55.4512 53.4234 55.6837 53.0611C55.9679 52.6213 56.2779 52.1814 56.6008 51.7545C57.7222 50.2325 58.9851 48.8203 60.3726 47.537C61.9883 46.0409 63.7595 44.7224 65.6557 43.6042C66.4694 43.1255 69.8666 40.9909 70.6158 42.4916C70.0087 42.4528 69.4662 42.6727 68.9495 42.9573C68.8204 43.022 68.1616 43.5007 68.3166 43.0867C68.1228 43.1255 67.9549 43.3713 67.8128 43.4877C67.5216 43.6999 67.215 43.8902 66.8957 44.057C66.6115 44.2122 66.2498 44.251 65.9915 44.4451C65.9011 44.5098 65.8365 44.6262 65.7461 44.7038H65.4877C65.449 44.8461 65.4102 44.9884 65.3715 45.1437C65.2294 44.665 65.0098 45.286 64.7644 45.493C64.5915 45.6206 64.4052 45.729 64.209 45.8164C64.0798 45.8681 64.054 45.7388 63.9377 45.8423C63.8214 45.9328 63.7569 46.1398 63.6277 46.2433C63.4683 46.3755 63.3 46.4965 63.1239 46.6055C62.801 46.8384 62.4652 47.0195 62.1551 47.2265C61.716 47.5241 61.4964 48.0157 61.0701 48.3262C60.8764 48.4685 60.5663 48.4814 60.4501 48.5849C60.1788 48.8178 60.2693 49.1671 59.7655 49.18C59.814 49.2481 59.841 49.3292 59.843 49.4129C59.7226 49.3936 59.6104 49.3396 59.5201 49.2576C59.5459 49.7622 59.0421 49.9433 58.745 50.2538C58.5522 50.4488 58.3832 50.6659 58.2413 50.9006C58.211 51.0065 58.1894 51.1147 58.1767 51.2241C58.125 51.2499 57.8538 51.0041 57.8796 51.0171C57.8021 51.4828 57.35 51.9227 57.1562 52.3496C57.0529 52.5824 56.9496 52.9447 56.7429 53.0999C56.6912 53.1387 56.5104 53.0999 56.3812 53.2422C56.2638 53.38 56.172 53.5378 56.11 53.708C56.0841 53.8115 56.11 54.0573 56.0712 54.1219C55.9937 54.2254 55.8775 54.122 55.7612 54.1996C55.5416 54.3419 55.5416 54.5747 55.2316 54.6006C55.4512 55.131 56.7558 55.2863 57.2208 55.4415C58.5642 55.8684 59.9592 56.2824 61.2122 56.9293C61.5351 57.0975 61.8451 57.2398 61.8968 57.6149C61.9743 58.1454 61.703 58.8569 61.6514 59.4003C61.52 60.8755 61.4725 62.357 61.5093 63.8376C61.5351 65.2219 61.5868 66.632 61.6514 68.0163C61.716 69.31 61.9743 70.5649 62.1164 71.8456C62.1551 72.1949 62.1293 73.7733 62.7364 73.6956C63.2402 73.631 62.9173 72.5443 62.9173 72.2338C62.8914 71.5481 63.0464 70.8495 63.0335 70.1509C63.0335 69.8145 63.1756 69.5299 63.1885 69.2194C63.2014 68.909 63.0464 68.6502 63.0981 68.3268C63.1368 68.0163 64.0669 66.2181 63.1756 66.425C63.2273 66.1663 63.2789 65.9076 63.3435 65.6488C63.4349 65.7363 63.5132 65.8365 63.576 65.9464C63.6535 65.3901 63.6277 64.8467 63.6794 64.2904C63.7052 64.0446 63.8085 63.76 63.7698 63.5142C63.776 63.4092 63.7629 63.304 63.731 63.2037C63.7047 63.1752 63.6727 63.1524 63.6372 63.1368C63.6016 63.1212 63.5632 63.1131 63.5244 63.1132C63.4997 63.0641 63.489 63.0091 63.4936 62.9543C63.4981 62.8995 63.5177 62.847 63.5502 62.8027C63.561 62.7579 63.5855 62.7177 63.6202 62.6876C63.6549 62.6574 63.6982 62.6389 63.7439 62.6345C63.9248 62.6086 63.9506 62.5051 63.8085 62.324C63.8814 62.0055 63.8902 61.6757 63.8344 61.3537C63.7956 61.0433 63.9506 60.4482 63.7827 60.1635C63.5889 59.8401 63.4856 60.1506 63.4598 59.7107C63.4426 59.5809 63.4514 59.449 63.4856 59.3226C63.5244 59.2191 63.6535 59.2579 63.6664 59.2191C63.7698 58.9733 63.7827 58.4817 63.3952 58.5205C63.4081 58.3394 63.421 58.1583 63.4468 57.9901C63.731 58.3135 63.6277 58.0419 63.7827 57.8607C63.9894 57.6149 64.209 57.5761 64.5061 57.4856C65.3198 57.2268 66.0949 56.8517 66.8828 56.5412C68.562 55.8814 70.2671 55.2992 71.8946 54.5359C75.3176 52.9059 78.6761 51.1464 82.112 49.5552C81.8666 49.1024 82.0216 49.0765 82.2024 48.6496C82.4478 48.8178 82.3962 48.7013 82.5641 48.6884C82.5512 48.5461 82.5899 48.5073 82.6933 48.559C82.7762 48.5874 82.8646 48.5963 82.9516 48.5849C83.1712 48.6237 83.3391 48.7402 83.5329 48.779C83.5947 48.8261 83.6648 48.8612 83.7395 48.8825C83.8085 48.8661 83.8713 48.8302 83.9204 48.779C84.2304 48.8437 84.3337 49.0765 84.3596 49.4129C84.3596 49.4776 84.1787 49.5293 84.2304 49.6199C84.3208 49.7622 84.5662 49.7234 84.7083 49.7492C84.6825 49.8915 84.6437 50.0339 84.6179 50.1891C85.2379 49.9045 85.07 50.7971 85.2638 51.0818C85.3154 51.1594 85.4317 51.0947 85.4963 51.1982C85.5738 51.3276 85.5479 51.4957 85.6125 51.6251C85.7675 51.8968 85.9096 51.8709 86.0646 52.1814C86.8526 53.8373 87.8988 55.3898 88.6609 57.0845C89.0226 57.8866 89.3455 58.7146 89.7201 59.5167C90.0689 60.2541 90.2626 60.8751 90.0172 61.6901C89.4489 63.553 88.8289 65.4548 88.0797 67.266C88.0339 67.2632 87.9897 67.2486 87.9512 67.2237C87.9127 67.1988 87.8813 67.1643 87.8601 67.1236ZM47.9076 81.0697L47.7526 81.3414C47.6364 80.6558 47.9464 80.9792 47.9076 81.0697ZM45.3888 79.776C45.2209 79.7243 45.2855 79.4397 45.2984 79.3232C45.409 79.4601 45.5124 79.6026 45.6084 79.7502C45.536 79.7644 45.4626 79.7731 45.3888 79.776ZM38.4653 77.1369C38.6461 77.0334 38.7753 76.9687 38.982 76.8523C38.7624 77.2533 38.7624 77.2533 38.4653 77.1369ZM27.5633 41.3143C27.292 41.987 28.1316 46.1916 27.3437 46.3209C27.2274 45.9587 27.2145 44.9367 26.7495 44.8202C26.1682 44.665 26.2328 45.7129 26.1553 46.0363C24.967 45.2083 24.4374 43.6171 23.8819 42.3493C23.1586 40.7321 22.5902 39.0633 22.0477 37.3815C21.5827 35.9454 21.1952 34.4836 20.7302 33.0476C20.4331 32.142 20.1231 31.2493 19.9164 30.3179C19.8776 30.1109 19.7097 29.6063 19.8518 29.4123C20.0585 29.1276 20.8077 29.4511 21.0531 29.5287C22.629 30.0074 24.2565 30.2014 25.8712 30.486C27.6666 30.7965 29.4621 31.107 31.2705 31.3399C31.7226 31.4046 32.1747 31.4563 32.6268 31.5081C32.9239 31.5469 33.363 31.5081 33.6472 31.6374C34.2156 31.9091 34.3318 32.9182 34.5385 33.4486C35.3135 35.428 36.2435 37.3297 37.0573 39.2832C37.7936 41.0426 38.3619 42.9185 39.4211 44.5227C38.6332 44.1734 37.6257 42.3105 36.7344 43.3842C36.3469 43.85 36.4502 44.458 36.4761 45.0143C36.5148 45.8164 36.5277 46.6185 36.5277 47.4206C35.6623 47.2006 35.081 46.2045 34.616 45.5059C34.0164 44.606 33.5792 43.6076 33.3243 42.5563C33.208 42.0776 32.8851 42.0647 32.6009 41.78C32.4201 41.5989 32.3297 41.3531 32.0713 41.6119C31.7484 41.9482 31.968 42.8668 32.0197 43.2678C32.1488 44.1993 32.588 45.6482 32.1618 46.5279C31.5805 47.7181 30.0434 44.7297 29.8625 44.2898C29.7979 44.0699 28.1575 39.8654 27.5633 41.3143ZM26.4912 20.9385C26.5945 20.9515 26.6849 20.9644 26.7883 20.9773C26.7108 21.042 26.5428 21.2878 26.4137 21.2231C26.4395 21.1455 26.4653 21.042 26.4912 20.9385ZM31.6322 19.8389C31.6063 19.8777 31.5676 19.9036 31.5417 19.9424C31.3997 19.7742 31.4513 19.5154 31.4513 19.3085C31.5363 19.3639 31.6003 19.4463 31.6331 19.5424C31.6658 19.6386 31.6655 19.7429 31.6322 19.8389ZM32.0455 21.7794V22.3486C31.6709 22.1805 31.658 22.0899 32.0455 21.7794ZM32.5234 22.5039C32.2522 22.4263 32.2263 22.3745 32.2651 21.9476C32.3684 22.1805 32.4459 22.3357 32.5234 22.5039ZM34.0735 26.7214C33.9572 27.0189 33.2985 26.3203 33.3243 26.1133C33.3501 25.9193 33.4535 25.8546 33.5955 25.984C33.6472 26.0228 33.5697 26.178 33.6085 26.2298C33.6989 26.4238 33.9185 26.5791 34.0735 26.7214ZM34.0864 28.4808C33.9185 28.8948 33.6214 28.2479 34.0606 28.2221C34.0826 28.3064 34.0913 28.3937 34.0864 28.4808ZM33.7635 27.821C33.6989 27.7379 33.6385 27.6515 33.5826 27.5623C33.8022 27.6011 33.9831 27.9374 34.2156 27.7175C34.1768 28.0539 33.9443 28.0539 33.7635 27.821ZM19.3222 22.4392C18.9605 22.0511 21.2985 21.7665 21.5827 21.7018C23.6114 21.2007 25.588 20.5076 27.4858 19.6319C28.4029 19.2179 29.3071 18.8039 30.1984 18.3382C30.5859 18.1441 31.1155 17.9759 31.4384 17.6784C31.6709 17.4714 31.658 17.3032 31.9551 17.1738C32.2134 17.0704 32.2263 17.1738 32.3426 16.9798C32.4072 16.8634 32.4976 16.4364 32.4459 16.3071C32.3297 15.9578 32.1747 16.2424 31.9422 16.0095C31.7742 15.8413 31.813 15.3497 31.8647 15.1557C31.9257 15.2483 31.9613 15.3554 31.968 15.4662C32.2134 15.3368 32.123 14.9228 32.3943 14.8452C32.6784 14.7676 32.6526 15.0004 32.7301 15.2333C32.9497 14.9099 32.7689 14.6382 32.6526 14.3277C33.2468 14.2113 33.8926 14.1078 34.4868 14.3018C34.9131 14.4441 35.2877 14.8064 35.7398 14.8711C36.179 14.9357 36.2694 14.7288 36.5923 14.5088C36.8636 14.3406 37.0832 14.5347 37.2252 14.4053C37.1348 14.8452 36.4115 14.7934 36.5019 15.3368C36.5406 15.5826 36.8506 15.8155 36.9927 16.0095C37.1647 16.2552 37.3078 16.52 37.419 16.7987C37.884 17.8724 38.0778 19.1015 38.2715 20.2529C38.7495 23.0731 38.814 25.9451 39.2661 28.7783C39.4857 30.1238 39.6924 31.4692 39.8087 32.8406C39.8345 33.1769 40.0412 33.9532 39.8732 34.2766C39.7311 34.5483 39.4082 34.5483 39.124 34.6259C38.585 34.7627 38.0545 34.9311 37.5352 35.1304C37.0573 35.3115 36.9282 35.415 36.6181 34.9752C36.321 34.5483 36.179 34.0308 35.9723 33.565C35.701 32.9699 35.3781 32.3878 35.0681 31.8056C35.6752 31.8056 36.024 31.4822 36.011 30.8612C35.9981 30.1755 35.4298 30.0074 35.1973 29.4511C34.9777 29.7486 34.9518 29.7486 34.7968 29.4769C34.616 29.1535 34.4868 28.5714 34.3706 28.2091C34.4481 28.2997 34.5256 28.3773 34.616 28.4679C34.8227 28.1832 34.4997 27.7434 34.3964 27.4846C34.2285 27.0836 34.2026 26.6437 34.0476 26.2298C33.9572 26.0098 33.7635 25.8287 33.7118 25.6088C33.686 25.4535 33.8022 25.3112 33.7764 25.156C33.7247 24.8843 33.4147 24.5868 33.3243 24.3151C33.1822 23.8882 33.0143 23.513 32.8334 23.099C32.588 22.5298 32.6397 21.9476 32.6009 21.3396C32.5493 20.7186 32.3555 20.1235 32.2909 19.5025C32.2393 19.0756 32.3943 18.5322 32.0713 18.1959C32.0326 18.7651 32.2005 18.7522 31.658 18.8557C31.0509 18.9721 30.6117 19.4249 30.0304 19.5672C29.9142 19.5931 29.8238 19.0756 29.8754 19.7871C29.6042 19.5801 29.01 19.8389 29.2296 19.9553C29.0617 20.1364 28.7387 20.0071 28.6742 20.2787C28.1058 19.7224 27.2016 21.5983 26.5299 20.628C26.4137 21.2878 25.9357 21.6889 25.2899 21.7665C24.967 21.8053 24.7732 21.9217 24.4761 22.0123C24.4115 22.0382 24.3986 22.1158 24.3211 22.1417C24.2178 22.1805 24.0628 22.077 23.9853 22.0899C23.8303 22.1287 23.6623 22.3357 23.4427 22.3745C23.1902 22.4133 22.9332 22.4133 22.6806 22.3745C22.3706 22.3357 22.2285 22.2969 21.9315 22.4004C21.6602 22.491 21.3631 22.7497 21.1177 22.4651C20.7431 23.1119 19.8001 22.9438 19.3222 22.4392ZM37.7161 14.1207C37.419 14.0819 37.6257 13.8232 37.7678 13.7455C38.1424 13.5385 38.039 14.1595 37.7161 14.1207ZM21.0531 16.5917C22.8227 14.0431 25.8453 12.2837 28.5062 10.8088C29.9529 10.0067 31.4384 9.21758 32.9626 8.5578C33.7247 8.23437 34.4868 7.91095 35.2619 7.62633C35.6752 7.47109 36.0885 7.32878 36.5148 7.19941C36.6311 7.1606 36.8377 7.04417 36.9669 7.0571C36.9411 7.0571 37.264 7.14766 37.1994 7.17354C37.4061 7.08298 37.5094 6.85011 37.7548 6.74662C38.0495 6.64281 38.3596 6.5903 38.672 6.59137C38.9303 6.57843 39.1628 6.69487 39.4082 6.69487C39.5761 6.69487 39.7053 6.61725 39.8732 6.61725C39.9507 6.61725 39.9507 6.73368 40.0024 6.74662C40.0282 6.74662 40.2349 6.66899 40.2478 6.66899C40.3253 6.72074 40.4028 6.9148 40.4674 6.99242C40.6906 7.20621 40.9541 7.37333 41.2424 7.48403C41.5783 7.62633 42.3921 7.76864 42.0045 8.29906C42.2758 8.26025 42.3921 8.50605 42.0562 8.5578C41.8754 8.59661 41.7979 8.42843 41.6687 8.31199C41.3587 8.05325 40.6095 7.67808 40.1574 7.69102C39.912 7.70395 39.7053 7.89801 39.4728 7.96269C39.2403 8.02738 39.137 7.92388 38.9303 7.93682C38.6978 7.96269 38.5428 8.15675 38.3232 8.19556C38.1165 8.23437 38.0003 8.09206 37.8065 8.09206C37.5869 8.105 37.3673 8.29906 37.1607 8.36374C36.843 8.44589 36.5354 8.56304 36.2435 8.71304C35.6106 9.0494 34.8873 9.16584 34.2285 9.45045C33.6989 9.68332 33.1047 9.79975 32.6139 10.0456C32.0713 10.3302 31.5288 10.6018 30.9992 10.9123C30.6117 11.1323 29.8367 11.2099 29.4104 11.1581C29.4104 11.9344 29.0229 11.391 28.6354 11.7274C28.726 11.8073 28.8313 11.8688 28.9454 11.9085C28.5321 12.0767 28.1446 12.2837 27.7312 12.4777C27.3179 12.6718 26.8658 12.7235 26.5945 13.0987C26.3362 13.448 26.4266 13.2669 26.052 13.3962C25.8841 13.4609 25.7291 13.655 25.5999 13.7843C25.3803 14.0043 25.3416 14.3406 25.2124 13.8878C25.1736 13.9396 25.0315 14.2889 25.0057 14.3018C24.8507 14.1336 24.8249 14.3277 24.7474 14.4053C24.7861 14.5606 24.7215 14.6511 24.5536 14.7029L24.2824 14.8969C23.9594 15.1298 23.5332 15.3239 23.3136 15.6602C23.2735 15.641 23.238 15.6134 23.2093 15.5794C23.1806 15.5454 23.1595 15.5057 23.1473 15.4629C23.1351 15.4201 23.1321 15.3752 23.1385 15.3312C23.1449 15.2871 23.1605 15.245 23.1844 15.2074C22.8615 15.505 22.474 15.8155 22.3836 16.2812C22.3413 16.2437 22.2933 16.2131 22.2415 16.1906C22.1123 16.2812 22.2802 16.5399 22.3706 16.6046C22.7323 16.4623 22.2802 16.5141 22.5256 16.5399C22.5964 16.5691 22.67 16.5908 22.7452 16.6046C22.9654 16.605 23.1854 16.592 23.404 16.5658C23.8979 16.4772 24.3855 16.3562 24.8636 16.2036C25.3803 16.0483 25.9099 15.8931 26.4137 15.699C26.827 15.5438 27.2404 15.3627 27.6537 15.1945C27.8216 15.1298 27.9896 15.0522 28.1446 14.9875C28.4546 14.8581 28.6225 14.6382 28.5837 15.0134C28.8292 14.9746 29.0487 14.6123 29.2425 14.47C29.5112 14.2686 29.8128 14.1154 30.1338 14.0172C30.2486 13.9674 30.3708 13.9369 30.4955 13.9267C30.56 13.9267 30.5988 14.1078 30.6375 14.1078C30.9217 14.0431 30.7926 13.8749 30.9217 13.655C31.2059 13.1504 31.968 12.8788 32.433 12.5941C32.7301 12.413 32.9368 12.1672 33.208 11.9732C33.3132 11.8965 33.4314 11.8395 33.5568 11.805C33.6601 11.7791 33.7893 12.012 33.8539 11.7791C33.6406 11.6703 33.4205 11.5753 33.1951 11.4945C33.0272 11.4427 33.2339 11.2746 32.9755 11.3781C32.8722 11.4169 32.8334 11.6239 32.7947 11.7015C32.5105 11.4427 31.6967 11.7144 31.3609 11.8179C31.3351 11.8309 31.2317 11.7662 31.1801 11.7791C30.9863 11.792 30.8442 12.0637 30.715 12.1672C30.3663 12.4648 29.9917 12.5941 29.5783 12.7753C29.6946 12.1543 30.5213 11.9085 30.9992 11.6627C31.7097 11.3134 32.3684 10.8735 33.1435 10.6924C33.6601 10.563 34.3447 10.4725 34.5643 11.0676C34.6935 11.4298 34.7193 12.3225 34.2672 12.4906C34.2156 12.3225 34.3706 12.1802 34.4222 12.0379C33.9701 12.206 33.8926 12.7494 33.5568 13.034C33.4149 13.1271 33.2957 13.2509 33.208 13.3962C33.1303 13.5733 33.0105 13.7287 32.8593 13.849C32.5105 13.0987 32.5622 14.1207 32.3813 14.2501C32.4588 14.1983 32.0843 14.3536 32.1359 14.3277C32.123 14.3277 31.9551 14.0819 31.8517 14.0819C31.6709 14.0948 31.6967 14.3018 31.6063 14.4053C31.2963 14.7546 30.9088 14.9875 30.418 14.9357C30.405 15.1815 30.4825 15.4791 30.1467 15.505L30.1079 14.9487C29.9271 15.1427 29.6817 15.3109 29.5267 15.5308C29.3588 15.7766 29.3717 15.9319 29.0875 16.1001C28.7904 16.2683 28.1575 16.6176 27.8087 16.6434C27.8312 16.6195 27.8479 16.5908 27.8576 16.5595C27.8673 16.5282 27.8698 16.495 27.8648 16.4626C27.8598 16.4302 27.8475 16.3993 27.8288 16.3724C27.8102 16.3454 27.7856 16.3231 27.757 16.3071C27.5762 16.4882 27.3179 16.5141 27.1241 16.6693C27.7829 16.941 26.6203 16.928 26.4653 16.9669C26.362 16.9927 26.2845 17.0833 26.1812 17.0962C26.052 17.1221 26.0262 16.9798 25.9228 17.0315C25.7549 17.0962 25.8195 17.2773 25.6516 17.3679C25.5224 17.4326 25.3157 17.4326 25.1736 17.4973C24.8378 17.6525 24.1144 17.9759 23.8819 17.5749C23.7657 18.2606 22.5773 17.8466 22.151 17.7948C21.531 17.6784 20.4977 17.3938 21.0531 16.5917ZM23.5719 9.51513C23.589 9.49768 23.6097 9.48407 23.6324 9.47517C23.6552 9.46628 23.6796 9.46231 23.704 9.46353C23.7284 9.46476 23.7523 9.47114 23.774 9.48226C23.7958 9.49339 23.815 9.509 23.8303 9.52807C23.714 8.9071 24.6311 8.59661 25.0315 8.33787C25.5611 7.98857 26.1812 7.30291 26.8787 7.35465C26.7624 7.44521 26.6462 7.53577 26.5299 7.6134C26.6978 7.63927 26.8658 7.65221 27.0337 7.67808C26.9433 7.82039 26.8399 7.96269 26.7495 8.09206C26.5945 7.23822 25.7807 8.31199 25.5482 8.48018C25.3074 8.61585 25.0783 8.77165 24.8636 8.94591C24.657 9.13996 24.4632 9.48926 24.1274 9.30814C24.1015 9.79975 23.7011 9.67038 23.4298 9.94206C23.3911 9.77388 23.4944 9.65744 23.5719 9.51513ZM27.1629 7.07004C28.0025 6.75955 28.7258 6.17739 29.5138 5.7634C30.263 5.36236 31.038 5.01306 31.8001 4.63788C32.1876 4.44383 32.898 3.96516 33.3501 4.21096C33.9443 4.54732 33.1305 4.65082 32.9109 4.76725C32.8334 4.24977 32.5493 4.7155 32.7172 5.00012C32.2651 4.80606 31.2576 5.58228 30.8184 5.78928C30.715 5.84102 30.7667 5.8669 30.6505 5.91865C30.6246 5.93158 30.3405 5.99627 30.25 6.02214C29.8367 6.16445 29.5654 6.04802 29.3975 6.55256L29.2813 6.20326C29.0229 6.78543 28.2479 7.03123 27.7441 7.38053C27.615 7.47109 27.2533 7.80745 27.0854 7.74277C26.8658 7.65221 26.9562 7.14766 27.1629 7.07004ZM42.2758 8.81654C42.6246 8.84241 42.2887 9.01059 42.3791 9.11409C42.3662 9.10115 42.5858 9.29521 42.56 9.24346C42.5987 9.30814 42.6892 9.30814 42.7408 9.45045C42.9087 9.94206 42.1725 10.4595 41.927 10.7312C41.4491 11.2746 41.1649 11.9602 40.6741 12.4906C40.4706 12.7222 40.2067 12.8925 39.912 12.9823C39.6924 13.0469 39.4599 12.9823 39.2661 13.1892C39.0982 13.3574 39.137 13.4609 38.9561 13.5515C38.6461 13.7067 38.504 13.5774 38.194 13.9137C37.9357 13.1892 38.6849 13.2022 39.0853 12.8011C39.6278 12.2448 40.2349 11.6886 40.7387 11.0935C41.1908 10.563 41.3716 10.1102 41.5912 9.46339C41.6558 9.2564 41.7333 8.82947 41.927 8.7001C42.2371 8.50605 42.0562 8.8036 42.2758 8.81654ZM44.0196 27.4846C44.9612 26.4251 46.0857 25.5443 47.3393 24.8843C47.7914 24.6644 48.4243 24.3668 48.8764 24.7161C49.3285 25.0525 49.2381 25.7252 49.0443 26.1909C48.8635 26.1263 49.0314 25.4794 48.941 25.3242C48.7472 24.9749 48.321 25.156 48.0239 25.2724C47.69 25.3951 47.3798 25.5745 47.1068 25.8028C47.0034 25.9063 46.7839 25.9969 46.7193 26.0616C46.6159 26.0228 46.5513 26.0486 46.5384 26.1521C46.5491 26.1837 46.5535 26.2171 46.5513 26.2504C46.5491 26.2837 46.5403 26.3163 46.5255 26.3462C46.5126 26.3721 46.3705 26.2815 46.3576 26.2944C46.2672 26.3721 46.1897 26.4626 46.0993 26.5273C45.9178 26.6425 45.7527 26.7818 45.6084 26.9413C45.2984 27.3294 44.885 27.5493 44.575 27.9116C44.5125 28.0113 44.4564 28.1151 44.4071 28.2221C44.2521 28.4032 44.0196 28.5584 43.8388 28.7525C43.5315 29.0643 43.1988 29.3499 42.8442 29.6063C42.6731 29.7259 42.5244 29.8748 42.405 30.0462C42.3533 30.1238 42.3275 30.5637 42.3275 30.5637C41.9787 30.9518 42.0433 30.1755 42.0691 30.085C42.3662 29.0371 43.3221 28.2479 44.0196 27.4846ZM42.1079 34.5224C42.1466 34.6906 42.1854 34.8199 42.2371 34.9881C41.9529 34.7552 41.9529 34.7552 42.1079 34.5224ZM41.8108 35.0528L41.5008 35.3633C41.2683 35.1175 41.8495 35.014 41.8108 35.0528ZM41.6558 30.9259C41.5525 31.3657 41.152 31.8962 40.8808 32.2455C40.9066 32.2067 40.6483 32.2843 40.6224 32.2972C40.5191 32.349 40.7645 32.7241 40.4158 32.556C40.2995 32.6206 40.532 32.9053 40.3641 33.0217C39.8991 31.9479 41.1779 31.0164 41.6687 30.2273C41.927 30.4472 41.7204 30.6801 41.6558 30.9259ZM38.6074 36.7217C38.9561 36.8122 39.124 36.7605 39.3566 36.4112C39.4986 36.2042 39.5503 35.8549 39.8603 36.1524L39.912 35.7643C40.3641 35.9454 40.3253 36.6182 40.532 36.9933C40.6224 36.5664 40.8549 35.3892 41.5525 35.5832C42.3404 35.7902 41.0358 37.1486 40.9066 37.485C40.6353 37.071 40.7387 37.4591 40.5449 37.5108C40.3641 37.5626 40.0928 37.4332 39.8862 37.4461C39.2403 37.485 38.672 37.7696 38.0778 38.0154C37.9228 37.6143 37.7807 37.2133 37.6257 36.7993C37.9744 36.8252 38.6978 35.8937 38.7882 36.5794C38.5299 36.5406 38.4524 36.5406 38.3361 36.7864C38.4217 36.748 38.5137 36.7261 38.6074 36.7217ZM40.0541 41.987C40.2948 42.0048 40.5363 42.0091 40.7774 42C41.2295 41.8318 41.0616 41.3143 41.1649 40.9391C41.3587 41.1073 41.2554 41.4307 41.307 41.6507C41.3716 41.9094 41.5783 42.1423 41.5912 42.4269C41.63 43.0608 41.1133 42.9185 40.7128 43.1255C40.377 43.3066 40.3382 43.5265 40.0541 43.0479C39.9766 42.9185 39.8087 42.5821 39.8216 42.414C39.8474 42.2716 40.1057 42.1293 40.0541 41.987ZM40.5966 44.7426L40.4158 44.5356C40.9712 44.7038 40.6483 44.4451 40.7645 44.1087C41.1908 44.3933 41.5395 44.6779 41.8625 44.1216L42.4437 46.4632C42.0562 46.5538 41.5525 45.9587 41.2812 45.7517C41.1262 45.6353 40.2737 45.1695 40.7903 45.0402C40.7258 44.9367 40.6612 44.8461 40.5966 44.7426ZM44.3813 37.4073C44.0584 37.7178 43.7354 37.886 43.3867 38.1189C43.0767 38.3259 43.18 38.5717 42.9217 38.8045C42.7408 38.9598 42.3275 39.115 42.1079 39.2444C41.7204 39.4514 41.3716 39.5031 40.9712 39.2573C41.0745 40.137 40.4803 40.2017 39.7311 40.3828C39.3695 40.4605 39.1628 40.5898 38.9045 40.2664C38.7236 40.0465 38.659 39.6325 38.8786 39.4384C39.2274 39.115 40.1574 39.2315 40.5966 39.0245C40.9324 38.8692 41.2812 38.0024 41.6945 38.3129C41.4749 37.9636 41.7333 37.8731 41.9141 37.6273C42.1208 37.3556 42.25 37.0451 42.4566 36.7734C42.8998 36.2386 43.4386 35.7911 44.0454 35.4538C44.5492 35.1822 44.8075 35.3762 44.8851 35.9454C44.9238 36.2301 44.9238 36.657 44.7688 36.9028C44.7171 36.9804 44.5492 36.9804 44.4975 37.058C44.433 37.1874 44.5105 37.278 44.3813 37.4073ZM50.2844 30.6025C50.6848 30.913 50.6461 31.5727 50.7106 32.0126C50.8011 32.6465 50.7365 33.2546 50.7236 33.8885C50.7106 34.5612 50.3877 35.001 50.2327 35.622C50.0648 36.3206 49.8452 36.6958 49.4577 37.278C49.871 37.3426 49.251 38.5975 49.1477 38.7528C49.0314 38.9339 48.1401 39.736 48.5277 39.736C48.321 40.0206 48.0885 40.3052 47.8689 40.5769C47.7914 40.6804 47.6364 40.7321 47.5718 40.7968C47.4426 40.9521 47.4297 41.0944 47.3393 41.2626C47.1972 41.5342 47.1455 41.4566 46.9518 41.6636C46.8226 41.8059 46.7322 41.987 46.603 42.1164C46.1897 42.5433 46.138 42.194 45.8926 41.8706C45.876 41.912 45.8497 41.9489 45.816 41.9782C45.7823 42.0074 45.7421 42.0282 45.6988 42.0388C45.6213 41.6765 46.1251 41.3014 46.3447 41.0814C46.6934 40.7192 47.0034 40.3052 47.3135 39.9171C47.9761 39.0652 48.5476 38.146 49.0185 37.1745C49.5263 36.1274 49.8954 35.0184 50.1165 33.8755C50.2715 33.0087 50.4265 31.5339 49.2639 31.314C48.4243 31.1588 47.4943 31.6633 46.8097 32.0773C46.3834 32.3231 45.9701 32.5818 45.5567 32.8664C45.1176 33.1769 44.743 33.6039 44.265 33.8497C44.5234 33.7203 43.6708 34.1213 43.8 34.0049C43.7354 34.0566 43.7871 34.2248 43.7483 34.2895C43.6582 34.3923 43.5484 34.4758 43.4254 34.5353C43.2058 34.7035 42.8571 34.8717 42.7667 35.1304C41.3845 34.1472 44.1229 32.4007 44.8334 31.9608C46.2543 31.0811 48.6697 29.3605 50.2844 30.6025ZM54.0045 21.042C53.9916 20.3305 54.5728 19.3731 54.9604 18.791C55.1541 18.5064 55.4512 18.5193 55.5675 18.1829C55.632 17.9889 55.5416 17.7948 55.5675 17.6008C55.6076 17.3513 55.7001 17.1132 55.8387 16.9022C57.0142 14.8711 58.448 13.0857 59.9722 11.3134C60.7214 10.4466 61.4318 9.54101 62.2456 8.71304C62.5814 8.37668 63.4985 7.14766 64.0152 7.2641C64.2865 7.32878 64.4544 7.7557 64.5706 7.96269C64.7749 8.31475 65.0036 8.65195 65.2552 8.97178C65.9018 9.83739 66.6876 10.5894 67.5803 11.1969C68.1357 11.5851 68.7041 11.9473 69.2595 12.3483C69.7116 12.6718 70.3962 13.0599 70.7192 13.5127C71.0421 13.9784 70.5642 14.3665 70.3058 14.7546C69.9054 15.3497 69.5308 15.9707 69.1304 16.5658C68.9753 16.4494 69.0141 16.2165 68.8979 16.0613C68.7898 15.9494 68.663 15.8575 68.5233 15.7896C68.2649 15.6343 68.0066 15.4403 67.7741 15.699C67.3607 16.1518 67.9291 17.2256 68.5362 17.1092C68.6137 17.562 67.3995 18.2994 67.0895 18.5452C66.1594 19.3085 65.2036 19.9682 63.9764 20.0329C63.4742 20.0703 62.9696 20.0088 62.491 19.8518C62.2514 19.7808 62.0307 19.6571 61.8451 19.4896C61.6385 19.2826 61.5868 18.9721 61.3801 18.7651C61.1993 18.584 60.9668 18.5581 60.7859 18.377C60.6051 18.1959 60.5276 17.9113 60.4501 17.6784C60.308 17.2256 60.2822 16.7469 60.153 16.2941C60.0755 16.0225 60.0109 15.6473 59.7397 15.919C59.3651 16.3071 59.5459 17.5102 59.6492 17.963C59.7913 18.6228 60.1143 19.1403 60.4501 19.7095C60.8247 20.3175 60.9539 20.8868 61.0184 21.5983C61.1496 22.9144 61.5218 24.1949 62.1164 25.3759C62.3618 25.8805 62.6589 26.3462 62.9302 26.8378C63.0593 27.0707 63.3306 27.8469 63.6794 27.8469C64.2219 27.8339 63.4468 26.2556 63.3435 25.984C62.7493 24.5091 62.181 22.9567 62.0518 21.3525C62.9043 21.5724 63.8344 21.7794 64.7256 21.6371C64.1573 22.9179 64.7515 24.1857 64.674 25.5053C64.6352 26.1651 64.6094 26.7731 64.6223 27.4329C64.6352 28.0151 64.3769 28.5843 64.1444 29.1147C63.6923 30.1497 63.1368 31.4304 62.3102 32.2196C61.6126 32.8794 60.6826 32.9311 59.7784 32.7759C57.7117 32.4266 56.3683 30.8353 55.5029 29.0371C54.9422 27.8763 54.5257 26.6511 54.2628 25.3888C53.9528 23.9787 54.0303 22.5168 54.0045 21.042ZM56.6783 11.2358C54.7537 9.83856 57.5438 8.26025 58.9776 8.48018C59.3134 8.53192 59.9205 8.67423 59.8947 9.10115C59.8688 9.46339 59.2746 9.8515 59.0421 10.0714C58.3963 10.6924 57.7246 11.999 56.6783 11.2358ZM70.6675 42.207C70.6029 42.1423 70.0604 42.2975 70.28 41.9741C70.4608 41.7154 70.9517 42.0388 71.1325 42.1035C70.9775 42.207 70.8483 42.3622 70.6675 42.207ZM62.6589 59.0639C62.491 59.0898 62.3231 58.637 62.9173 58.9733C62.8268 58.9992 62.7493 59.038 62.6589 59.0639ZM62.646 66.3474C62.6718 66.5415 62.7235 66.6838 62.5814 66.8261C62.4652 66.6709 62.4522 66.4639 62.646 66.3474ZM62.8914 69.3488C62.8785 69.4523 62.8527 69.5687 62.8398 69.6722C62.6977 69.6076 62.5685 69.5299 62.4264 69.4652L62.8914 69.3488ZM63.0593 66.8132C63.266 66.8908 63.1627 66.645 63.3177 66.6062C63.3416 66.7249 63.3402 66.8474 63.3135 66.9656C63.2868 67.0838 63.2354 67.195 63.1627 67.2918C63.1199 67.1342 63.0854 66.9744 63.0593 66.8132ZM68.2907 48.6625C68.0066 48.6237 67.9549 48.9342 67.7482 49.0506C67.6061 49.1283 67.1928 49.0636 67.1153 49.2188C67.2186 49.2447 67.322 49.2835 67.4253 49.3094C67.1928 49.4388 66.9474 49.5681 66.7149 49.6975C67.2832 49.6975 67.8774 49.4258 68.4458 49.5034C68.5567 49.5134 68.6644 49.5461 68.7621 49.5995C68.8599 49.653 68.9457 49.7259 69.0141 49.8139C69.1113 49.9473 69.1735 50.103 69.1949 50.2667C69.2079 50.422 69.0916 50.5384 69.1045 50.6031C69.3629 50.616 69.3241 51.03 69.2724 51.1982C69.1433 51.5734 68.6524 52.1555 68.2132 51.9097C68.3941 52.1685 68.3553 52.3237 68.0712 52.479C68.097 52.3884 68.1099 52.2331 67.9678 52.259C67.9291 52.4013 67.942 52.6342 67.8257 52.7506C67.6966 52.88 67.5674 52.7248 67.4511 52.8153C67.2961 52.9059 67.3478 53.0611 67.2315 53.1646C67.0765 53.3069 67.0507 53.2034 66.8699 53.2293C66.5857 53.2681 66.7665 53.087 66.534 53.3199C66.4565 53.3975 66.4694 53.6045 66.3403 53.7209C66.0948 53.9408 65.4361 54.1737 65.2036 53.8891C64.6352 54.7817 62.9431 55.0017 62.1551 54.2901C60.9022 53.1646 63.2402 50.8618 64.0152 50.1244C64.7902 49.387 65.6557 48.766 66.534 48.1451C67.0249 47.7958 67.5416 47.4853 68.0582 47.1748C68.3812 46.9807 68.7816 46.6314 69.182 46.6702C69.5308 46.6961 69.8408 46.9807 70.2154 47.0325C70.4866 47.0713 71.0033 47.136 70.6675 47.4982C70.5125 47.6664 69.8795 47.951 69.6729 47.9898C69.5437 48.0157 69.4145 47.9639 69.2983 47.9898C69.0916 48.0286 68.9495 48.2097 68.717 48.1839C68.7816 48.5461 68.6524 48.7143 68.2907 48.6625ZM72.0238 36.0878C72.0238 36.3465 71.5458 36.2818 71.4425 36.1912C71.2746 36.0489 71.2746 35.5962 71.21 35.4021C71.4813 35.4797 72.0238 35.7385 72.0238 36.0878ZM68.1357 27.3423C69.1451 26.5041 70.2159 25.743 71.3392 25.0654C71.7396 24.8196 72.308 24.341 72.8117 24.3927C73.0184 24.4186 73.4576 24.6644 73.3026 24.9231C73.2767 24.9749 73.0442 24.9878 72.9667 25.0266C72.8892 25.0654 72.8246 25.1819 72.7471 25.2336C72.2175 25.6217 71.5846 25.8546 71.055 26.2556C70.6158 26.5791 70.2154 26.9413 69.7504 27.2259C69.2983 27.4976 68.8333 27.6658 68.407 27.9633C68.4199 27.9633 67.8516 28.1574 67.9678 28.1962C67.4641 28.0409 67.9937 27.4588 68.1357 27.3423ZM74.8914 27.0318C75.4985 26.786 76.0797 26.5014 76.7127 26.3333C77.0266 26.2401 77.3549 26.205 77.6814 26.2298C77.6885 26.2084 77.7007 26.189 77.7168 26.1734C77.733 26.1577 77.7527 26.1462 77.7743 26.1398C77.7959 26.1335 77.8187 26.1324 77.8408 26.1368C77.8628 26.1412 77.8835 26.1509 77.901 26.1651C77.9726 26.2738 78.0704 26.3628 78.1852 26.4238C78.3661 26.5661 79.0248 26.7472 78.8957 27.0448C78.8052 27.2518 78.1465 27.2647 77.9656 27.3035C77.4102 27.4458 76.9064 27.7434 76.3381 27.821C76.2584 27.8158 76.18 27.7983 76.1056 27.7693C75.886 27.821 75.7051 28.0409 75.5114 28.1574C75.098 28.3902 74.5168 28.429 74.2197 28.843C75.1626 29.4899 75.9893 28.843 76.8289 28.3644C77.3317 28.078 77.8646 27.8481 78.4177 27.6787C78.7019 27.5752 78.9861 27.4846 79.2832 27.3941C79.4044 27.3503 79.53 27.3199 79.6578 27.3035C79.7092 27.2872 79.7649 27.2916 79.8131 27.3158C79.8613 27.3399 79.8983 27.3819 79.9161 27.4329C80.2649 27.42 80.2907 27.2 80.5103 27.614C80.8074 28.1962 80.3553 28.1574 79.929 28.235C79.3348 28.3385 78.7406 28.5584 78.1465 28.7007C78.0173 28.7395 76.8289 29.0112 76.8289 29.0241C76.7773 29.3993 80.1615 29.05 80.4457 28.9983C80.9624 28.8948 81.5049 28.6231 82.0345 28.6878C82.4478 28.7395 83.3649 29.3346 82.7191 29.7357C82.5899 29.1276 82.1507 29.6322 81.9182 29.8392C81.6082 30.1109 81.169 30.085 80.7557 30.2014C80.1873 30.3437 78.7148 30.9 78.3015 30.2014C78.4306 30.8224 76.0927 30.5119 75.7697 30.486C75.4597 30.4602 75.0464 30.5378 74.7493 30.4472C74.5555 30.3825 74.4393 30.2661 74.2584 30.2273C74.2107 30.2736 74.1534 30.309 74.0905 30.3308C73.9966 30.2824 73.9097 30.2215 73.8322 30.1497C73.2121 29.8651 72.2304 29.6969 72.5792 28.7783C72.928 27.8857 74.1034 27.3553 74.8914 27.0318ZM80.7686 27.5623C80.7817 27.505 80.799 27.4488 80.8203 27.3941C80.8203 27.5623 81.2207 27.627 81.169 27.8469C81.0657 28.3255 80.6136 27.614 80.5749 27.5364C80.6385 27.5514 80.7033 27.56 80.7686 27.5623ZM83.1712 28.3514C83.2229 28.5455 83.7395 28.9595 83.6104 29.05C83.4037 28.7783 82.8353 28.9077 83.1712 28.3514ZM74.3359 46.101C74.5297 45.7258 75.1109 46.3727 75.0464 45.7129C75.3564 45.7388 75.1626 45.9846 75.5372 45.8811C75.6793 45.8423 75.7697 45.687 75.9506 45.6482C76.0538 45.6417 76.1573 45.6417 76.2606 45.6482C76.4931 45.6353 77.3844 45.6223 76.7643 45.3118C77.1131 45.079 77.1518 45.1954 77.4619 45.4024C77.3843 44.9755 77.8364 45.2213 78.056 45.273C77.901 45.0272 78.2756 44.7685 78.4048 44.6003C78.366 44.8591 78.379 45.1437 78.7536 44.9755C78.844 44.9367 78.8311 44.7556 78.8957 44.7297C79.0248 44.6779 79.1023 44.7685 79.154 44.7685C79.2357 44.7827 79.3196 44.7783 79.3994 44.7556C79.5286 44.7038 79.464 44.5356 79.6319 44.5098C79.7353 44.4968 79.8128 44.6521 79.9419 44.6521C80.0065 44.6521 80.1228 44.5874 80.1744 44.5874C80.1873 44.5874 80.2519 44.4321 80.3294 44.4321C80.4457 44.4321 80.4844 44.7297 80.5361 44.7944C80.7358 45.0657 81.003 45.2798 81.3111 45.4153C80.7557 45.9199 79.6448 45.8681 78.9473 46.0363C78.585 46.1314 78.2342 46.2659 77.901 46.4374C77.819 46.4912 77.745 46.5566 77.6814 46.6314C77.6319 46.6 77.5844 46.5655 77.5394 46.5279C77.3456 46.5409 77.1777 46.4503 76.9581 46.4762C76.2993 46.5926 75.7826 47.0842 75.1239 47.1877C74.8268 47.2395 74.5814 47.3041 74.3876 47.0454C74.1809 46.8384 74.2197 46.3468 74.3359 46.101ZM73.4317 43.0608C73.5867 43.1902 73.4059 43.5912 73.6901 43.5524C73.8967 43.5265 73.858 43.2031 74.013 43.1384C74.2197 43.0479 74.3488 43.2549 74.5555 43.2419C74.9301 43.2031 74.9043 42.8797 74.5943 42.7374C74.9172 42.6468 75.0205 43.0349 75.3047 43.0349C75.6793 43.0349 75.5889 42.5821 75.9118 42.5045C76.0539 42.4786 76.0022 42.6727 76.0927 42.6986C76.2735 42.7503 76.4027 42.6598 76.5577 42.5821C76.6997 42.5175 76.8031 42.3751 76.9581 42.3363C77.0356 42.3105 77.2164 42.3493 77.2681 42.3105C77.3714 42.2328 77.4619 41.9353 77.5652 41.8965C77.6781 41.9746 77.7994 42.0397 77.9269 42.0905C77.901 42.2199 77.8235 42.2328 77.7202 42.1293C77.7202 42.414 78.5081 42.5045 78.3531 42.1552C78.7794 42.3363 78.4565 42.4269 78.4177 42.6727C78.4048 42.7762 78.3402 42.7633 78.366 42.8797C78.379 42.9314 78.5985 42.8926 78.5985 42.9573C78.5856 43.3842 77.2293 43.5136 76.971 43.5524C76.4446 43.633 75.926 43.7585 75.421 43.9276C75.0334 44.044 74.3876 44.3933 73.9743 44.3674C73.393 44.3416 73.3155 43.5783 73.4317 43.0608ZM72.1271 38.714C71.985 38.2353 72.4371 37.265 73.0313 37.3815C73.1734 37.4073 73.2121 37.5367 73.3284 37.5885C73.4834 37.6661 73.7417 37.6273 73.8838 37.7049C74.1938 37.8731 74.0388 38.3259 74.3488 38.4811C73.858 38.5975 72.3596 39.4643 72.1271 38.714ZM72.6955 40.551C72.9021 40.4346 73.2509 40.4217 73.393 40.2017C73.4705 40.2535 73.5997 40.551 73.7288 40.4993C73.7934 40.4734 73.8451 40.3182 73.8451 40.3182C73.9613 40.3182 73.9872 40.1629 74.1551 40.1759C74.3101 40.1888 74.4909 40.3828 74.633 40.4605C74.6072 39.9818 74.7364 39.943 75.1109 39.6842C75.2014 39.6325 75.266 39.4126 75.3435 39.3349C75.266 39.8395 75.4597 39.8395 75.8601 39.9171C76.0894 39.9499 76.3051 40.0459 76.483 40.1944C76.6609 40.3429 76.7941 40.5381 76.8677 40.758C76.4414 40.6804 75.886 40.771 75.718 41.2367C75.3822 40.6157 74.1422 41.4696 73.7417 41.6507C73.4446 41.78 73.0959 41.9612 72.8505 41.6507C72.6696 41.4307 72.773 41.1849 72.7859 40.9909C72.7859 40.9262 72.8505 40.9262 72.8375 40.8356C72.8375 40.7321 72.6955 40.6804 72.6955 40.551ZM77.2423 50.3443C77.126 50.3832 76.5447 50.409 76.5447 50.215C76.5447 50.0468 77.5652 50.215 77.2423 50.3443ZM76.2993 49.7234C75.8601 49.995 75.3693 49.0377 75.2143 48.766C75.6793 48.8307 75.8989 48.4426 76.1702 48.1451C76.4285 48.7143 76.816 48.4167 77.2293 48.2227C77.7202 48.0027 78.2498 48.0027 78.7406 47.8216C78.8956 47.7699 79.0377 47.6793 79.1927 47.6146C79.309 47.5629 79.4382 47.5241 79.5544 47.4723C79.5963 47.4395 79.6273 47.3947 79.6434 47.344C79.6595 47.2932 79.66 47.2388 79.6448 47.1877C79.6061 47.0972 79.6319 47.0325 79.7223 47.0066C79.8359 47.0406 79.9529 47.0623 80.0711 47.0713C80.2649 47.0325 80.5361 46.8514 80.3036 46.6573C80.549 46.4374 80.7944 46.6573 81.0399 46.7608C80.9882 46.5926 80.9236 46.4374 80.872 46.2692C80.9882 46.3209 81.337 46.8125 81.3757 46.8125C81.6082 46.7996 81.5824 46.4891 81.7116 46.3727C81.7891 46.4632 81.8149 47.1618 82.0991 46.929C82.2282 46.8255 81.957 46.4891 81.8795 46.4115C82.2153 46.4891 82.5124 46.8902 82.6028 47.2136C82.4445 47.2371 82.2832 47.2001 82.1507 47.1101C82.0603 47.5499 82.8741 47.3688 83.0033 47.6017C83.2616 48.0545 81.5953 48.365 81.3757 48.4038C80.9365 48.4814 80.4328 48.5202 80.0323 48.7143C79.6448 48.8954 79.5544 48.9471 79.1152 48.986C78.6115 49.0248 78.1077 49.1929 77.6169 49.3223C77.2164 49.4129 76.6868 49.4905 76.2993 49.7234ZM85.6125 33.6944C86.0129 33.5521 87.3692 32.8018 87.718 33.1252C87.7838 33.3048 87.866 33.4781 87.9634 33.6427C87.9892 33.9531 87.9763 34.0696 87.6017 34.2248C87.3305 34.3283 87.098 34.1084 86.8525 34.199C86.5813 34.3024 86.775 34.4706 86.633 34.5871C86.478 34.7164 86.1938 34.7811 86 34.8329C85.535 34.9752 85.0829 35.0916 84.6179 35.2469C83.6879 35.5573 82.7062 35.842 81.7503 36.0619C81.0399 36.2301 79.8257 36.6311 79.1669 36.1524C79.1023 36.4241 78.9473 36.3853 78.7277 36.4241C78.519 36.4743 78.3077 36.5131 78.0948 36.5406C77.8364 36.5535 77.1389 36.4759 77.2423 36.1266C77.2164 36.2301 77.7848 35.8937 77.6944 35.8678C77.9398 35.9196 77.8623 35.7902 78.056 35.7255C78.3144 35.635 78.5856 35.635 78.8569 35.5444C79.5286 35.3115 80.084 35.001 80.7944 34.8458C82.422 34.5224 84.0625 34.2507 85.6125 33.6944ZM20.8077 70.3838C20.6785 70.3838 20.5752 70.0086 20.9756 70.2803C20.9239 70.3062 20.8723 70.345 20.8077 70.3838ZM17.6688 69.8922C17.488 69.9439 17.4234 69.8404 17.4622 69.5946C17.6947 69.5041 17.7722 69.5946 17.6688 69.8922ZM15.2275 69.4006C15.1758 69.1806 15.3438 69.1289 15.4858 69.0383C15.4858 69.3229 15.4858 69.3229 15.2275 69.4006ZM9.11774 67.6023C8.87232 67.5506 8.54939 67.3048 8.48481 67.7058C8.44606 67.6152 8.23938 67.1754 8.3298 67.0719C8.38147 67.0201 8.54939 67.266 8.53648 67.2401C8.75607 66.8002 9.11774 67.3306 9.33733 67.4859C9.25983 67.5247 9.18233 67.5635 9.11774 67.6023ZM73.1605 19.3343C73.2509 19.1532 73.3413 19.1015 73.4576 19.1661C73.2767 19.5801 72.6696 19.813 73.1605 19.3343ZM77.4231 15.3756C77.5781 15.6602 77.3456 15.7766 77.1777 16.0225C77.281 15.7637 77.3456 15.5955 77.4231 15.3756ZM95.9462 43.229C96.4887 43.229 97.6641 42.9444 97.987 43.5653C98.2066 43.1384 98.4521 43.9405 98.6458 44.0699C98.6716 44.0828 98.8008 43.9793 98.8654 44.0181C98.9638 44.1042 99.043 44.21 99.0979 44.3286C99.2658 44.6133 99.3304 44.9496 99.4208 45.2601C98.465 45.2601 97.4833 45.0402 96.5274 44.9496C95.9042 44.9022 95.2787 44.8935 94.6544 44.9237C94.5253 44.9367 94.2799 44.8849 94.1765 44.9108C94.0732 44.9367 93.8665 45.1566 93.7503 45.1178C93.9311 45.4671 96.3207 46.308 96.5016 45.9199C96.282 45.7905 95.8041 45.687 95.8041 45.3765C95.8041 45.0272 96.2562 45.0272 96.4887 45.0402C97.0053 45.066 97.8837 45.2342 98.0904 45.7776C98.1808 46.0104 98.2066 46.5926 98.1033 46.8125C98.0387 46.9548 97.9354 47.136 97.7545 47.1618C97.677 47.1748 97.5866 47.0842 97.5737 47.0842C97.212 47.1618 96.5532 47.4465 96.1657 47.0454C95.8816 47.4076 94.5382 47.0066 94.1248 46.8772C93.4015 46.6314 92.4069 46.308 91.9677 45.6353C91.4381 44.8073 92.5231 44.1216 93.1432 43.7853C94.0215 43.3325 94.9903 43.229 95.9462 43.229ZM99.5888 45.1307C99.7567 45.1825 99.9246 45.2213 100.093 45.273C100.054 45.5706 99.3821 45.3377 99.5888 45.1307ZM104.665 55.8555C104.717 54.6782 104.381 53.6303 104.174 52.4919C104.123 52.2073 104.174 51.7157 103.955 51.4828C103.748 51.2629 103.296 51.444 103.27 51.0429C103.063 51.2758 103.089 51.3276 102.844 51.0559C102.891 51.1707 102.9 51.2977 102.87 51.4181C102.715 51.3276 102.159 51.03 102.198 51.444C101.733 51.3405 101.875 51.0559 101.604 50.8359C101.565 50.8101 101.41 50.9136 101.358 50.8748C101.27 50.7905 101.188 50.6996 101.113 50.6031C100.989 50.7299 100.855 50.8467 100.713 50.9524C100.676 50.8636 100.617 50.7853 100.543 50.7244C100.469 50.6634 100.381 50.6218 100.286 50.6031C100.467 50.9783 100.893 51.444 100.299 51.6639C99.9375 51.7933 99.3563 51.638 98.9817 51.6639C97.5866 51.7674 96.0495 51.4699 94.6932 51.1335C93.2982 50.7842 91.9031 50.3055 90.6502 49.594C90.412 49.4466 90.191 49.2731 89.9914 49.0765C89.7718 48.8954 89.6039 48.8695 89.3326 48.7531C88.847 48.5332 88.4083 48.2213 88.0409 47.8346C87.253 47.0325 86.5167 45.9716 86.7363 44.7944C86.9559 43.6171 87.7567 42.6986 88.6222 41.9353C89.6429 41.0238 90.7812 40.2537 92.0065 39.6454C92.549 39.3738 93.944 38.3388 94.4865 38.9468C94.8353 39.3349 94.6415 39.8266 94.1636 39.9171C94.0473 39.943 93.9311 39.8654 93.8148 39.9171C93.6469 39.9947 93.7115 40.0853 93.634 40.15C93.5105 40.2984 93.367 40.429 93.2077 40.5381C92.5748 40.8745 91.9677 41.1461 91.3606 41.5601C91.0764 41.7542 90.8181 41.8318 90.5727 42C90.3272 42.1682 90.2756 42.4398 89.9397 42.2716C90.056 42.7503 89.3585 43.2678 89.0743 43.5524C88.648 44.0052 88.1313 44.5874 88.338 45.2601C88.7255 46.5797 90.4822 47.5758 91.6189 48.158C93.0357 48.9062 94.5614 49.4257 96.1399 49.6975C96.9149 49.8139 97.7287 49.8915 98.5037 49.9692C99.1108 50.0339 100.054 49.8139 100.493 50.3702C100.506 49.7234 102.508 49.7881 102.934 49.6975C102.082 46.7737 100.403 44.1734 98.6071 41.7412C97.7287 40.551 96.8633 39.322 95.8557 38.2224C94.7578 37.0192 93.5048 35.9584 92.3035 34.8587C89.9656 32.6983 87.3176 30.7706 84.6308 29.0759C81.9441 27.3811 79.1669 25.7123 76.2218 24.5091C72.8634 23.1249 69.3241 22.2193 65.7848 21.4431C66.2628 20.835 67.0507 20.5245 67.6578 20.0847C67.8774 19.9294 68.1616 19.5543 68.4458 19.5025C68.7428 19.4508 68.9883 19.7742 69.2079 19.9424C69.8279 20.4081 70.2541 20.214 70.9646 20.1882C71.3908 20.1752 72.3984 20.4081 72.5663 19.8389C72.7988 20.1623 72.463 20.4081 72.2821 20.641C72.4113 20.8221 72.5146 20.628 72.6438 20.6022C72.6825 20.5633 72.7213 20.5375 72.76 20.4987C72.8246 20.4081 72.8763 20.4081 72.928 20.4987C73.0055 20.6151 73.083 20.5892 73.1605 20.421C73.1863 20.4081 73.1992 20.3952 73.2251 20.3822C73.3155 20.3305 73.4059 20.2529 73.4963 20.2011C74.0986 19.744 74.7431 19.3454 75.421 19.0109C76.0151 18.7263 75.6922 18.1829 76.0927 17.7948C76.1831 17.7043 76.3381 17.756 76.4285 17.6784C76.5189 17.6008 76.5318 17.5231 76.6093 17.4455C76.7773 17.2644 76.5835 17.0445 76.9968 17.2644L76.8418 16.4106C77.6556 17.1997 77.6556 14.9228 77.7719 14.5735C77.7589 14.6123 77.8494 14.276 77.8494 14.276C77.8752 13.5903 77.9656 13.0858 77.1648 13.0469C77.4748 12.8529 77.5652 13.2281 77.7073 12.8399C77.7719 12.6459 77.5523 12.3095 77.9139 12.4389C77.9914 12.0249 77.9139 11.6886 77.8235 11.2875C77.7331 10.8735 77.7848 10.6018 77.7848 10.1879C77.7848 9.72213 77.5781 9.2564 77.5006 8.79066C77.4489 8.42843 77.5006 7.87214 77.0356 8.00151C76.971 7.89801 77.2035 7.58752 77.1906 7.43228C77.1777 7.18647 76.9193 6.94067 76.8418 6.72074C76.7913 6.77765 76.7249 6.81797 76.6511 6.83644C76.5774 6.8549 76.4998 6.85065 76.4285 6.82424C76.5706 6.51375 76.4414 6.41025 76.2993 6.13858C76.2218 5.98333 76.2735 5.81515 76.1056 5.69872C76.0151 5.63403 75.8472 5.73753 75.7826 5.67284C75.6276 5.5176 75.6793 5.29767 75.576 5.09068C75.4339 4.83194 75.1239 4.62495 74.9172 4.41795C73.7159 3.30537 72.4113 2.43859 70.8096 2.01167C69.1949 1.57181 67.322 1.41657 65.7073 1.92111C65.0615 2.1281 64.4931 2.10223 63.9119 2.4774C63.7181 2.60677 63.7052 2.56796 63.6148 2.77495C63.5889 2.8267 63.7956 2.95607 63.6664 3.03369C63.5373 3.12425 63.3823 2.94313 63.3177 2.80083C62.4781 3.40887 61.703 4.21096 61.2251 5.14243C60.7472 6.06095 60.7084 7.14766 60.5276 8.14381C59.7009 7.09591 58.5771 6.64312 57.35 7.09591C56.2779 7.49696 55.4512 8.37668 55.2445 9.51513C55.1291 10.2051 55.2425 10.914 55.5675 11.5333C55.7095 11.805 55.8645 12.1025 56.1229 12.2837C56.3166 12.426 56.6654 12.413 56.7558 12.6718C56.8979 13.0728 56.0712 13.9267 55.8645 14.276C55.4687 14.9009 55.1273 15.5588 54.8441 16.2424C53.8624 14.8581 52.9195 13.3316 51.8086 12.0508C50.7494 10.8476 49.4964 9.76094 48.2693 8.73891C45.7117 6.61724 43.0508 4.62495 40.1962 2.9302C37.5094 1.36482 34.2931 0.498039 31.193 0.79559C28.1575 1.09314 25.8324 3.02076 23.8819 5.23299C20.1231 9.48926 17.8238 15.5697 17.6042 21.2361C17.5229 22.9278 17.6838 24.6225 18.0822 26.2686C18.2759 27.0577 18.2501 27.8339 18.3663 28.6231C18.4955 29.5158 18.728 30.4213 18.9476 31.3011C19.8007 34.6709 20.8356 37.992 22.0477 41.2496C22.6677 42.9314 23.4169 44.5874 24.4374 46.0751C24.9024 46.7608 25.5095 47.3041 26.0262 47.951C26.517 48.5849 26.6462 49.3611 26.7495 50.1374C27.0079 52.0003 27.1758 53.8632 27.3308 55.7391C27.3954 56.5282 27.4729 57.3174 27.5762 58.1066C27.6666 58.7922 27.4341 58.7534 26.8658 58.9992C26.982 58.3782 24.2307 58.8051 23.9594 58.844C23.6753 58.8957 23.3782 58.8957 23.1586 58.9216C22.9042 58.9795 22.6444 59.0098 22.3836 59.0121C21.9573 58.9992 21.1693 58.8957 21.0143 59.4261C20.8981 58.8051 20.1747 59.4908 20.7173 59.3744C20.1618 59.4391 19.5935 59.3356 19.0251 59.3873C18.3793 59.452 17.7334 59.5037 17.0876 59.6072C16.6355 59.6719 16.2092 59.853 15.77 59.8919C15.2017 59.9565 14.5946 59.9436 14.0262 59.9953C11.8949 60.1894 9.68609 60.6551 7.61936 61.1856C7.15435 61.302 6.61183 61.3926 6.15974 61.5866C6.04348 61.6384 5.92723 61.7548 5.81098 61.7936C5.61722 61.8712 5.64306 61.8195 5.47513 61.8453C4.45469 62.0523 3.39549 62.3887 2.36213 62.6474C1.79378 62.7897 0.863748 62.9191 0.398734 63.3202C0.192061 63.5013 0.0112226 63.8118 0.347066 64.0188C0.618324 64.174 0.992918 63.9282 1.21251 63.7859C1.01875 64.2904 0.657075 64.5362 0.850831 65.1055C1.00584 65.5583 1.3546 66.1146 1.88419 65.817C1.9617 65.9852 1.98753 66.3216 2.1942 66.3733C2.38796 66.425 2.51713 66.1922 2.71089 66.2439C2.77547 66.2698 2.74964 66.3862 2.81422 66.425C2.91892 66.4716 3.02685 66.5105 3.13715 66.5415C3.25742 66.5938 3.38302 66.6329 3.51174 66.6579C3.59158 66.6332 3.66607 66.5937 3.73133 66.5415C3.88634 66.5674 3.96384 66.8649 4.08009 66.9425C4.20731 67.0418 4.35915 67.1044 4.51927 67.1236C4.89387 67.2013 5.3718 67.3436 5.63014 66.9684C5.57847 67.2401 5.94015 67.2142 6.10807 67.253C6.09772 67.1809 6.07293 67.1117 6.0352 67.0494C5.99746 66.9872 5.94756 66.9332 5.88848 66.8908C6.25016 66.9167 6.10807 67.2789 6.37933 67.3824C6.57308 67.4471 6.54725 67.2789 6.70225 67.253C6.89601 67.2271 7.05101 67.3694 7.34811 67.2401C7.41269 67.5376 7.43853 67.8352 7.8002 67.874C8.00688 67.8999 8.51064 67.5117 8.47189 67.8352C8.94982 67.6929 9.11774 67.7964 9.37608 68.2104C9.41483 67.9516 9.62151 68.0292 9.80235 68.0163C10.0994 67.9904 10.0994 68.0163 10.3319 67.8481C10.3578 67.8352 10.5257 67.4212 10.6161 67.6799C10.6549 67.7964 10.4094 68.068 10.3319 68.1327C10.4353 68.1845 10.797 68.3785 10.939 68.3397C11.0553 68.3139 11.0553 68.1069 11.1974 68.0939C11.1586 68.2104 11.1328 68.3268 11.0941 68.4432C11.3653 68.482 11.5978 68.3009 11.8174 68.1586C12.0241 68.689 12.6183 68.3915 12.9412 68.7925C13.1091 68.9995 13.122 69.1677 13.445 69.2194C13.7808 69.2712 14.0779 69.1289 14.3621 69.4006C14.2716 69.2324 14.0521 69.0901 14.2716 68.896C14.4266 69.1159 14.5042 69.3747 14.6721 69.5687L14.7496 69.2582C15.2017 69.7499 15.7829 69.7499 16.3642 70.0215V69.711C16.7776 70.345 16.8034 69.9439 17.3071 69.6852C17.2684 69.8792 17.2426 70.0603 17.2038 70.2544C17.5655 70.2285 17.9013 70.6554 18.1984 70.2932C18.3793 70.5908 18.5989 70.4485 18.883 70.539C19.051 70.5908 19.1672 70.7589 19.3351 70.8107C19.5806 70.9012 19.6451 70.9012 19.8776 70.9789C20.0843 71.0436 20.2006 71.1859 20.446 71.2247C20.6042 71.2484 20.7647 71.2527 20.9239 71.2376C20.9885 71.2376 20.9627 71.0953 21.1048 71.1341C21.3114 71.1859 21.4664 71.4446 21.6214 71.5869C21.854 71.0177 22.4869 71.781 22.7969 71.8845C22.8227 71.7421 22.8227 71.561 22.9261 71.4446C23.0552 71.7163 23.094 71.9492 23.3523 72.1173C23.5203 72.2162 23.7037 72.2862 23.8948 72.3243C23.9982 72.3502 24.2049 72.3243 24.2694 72.3502C24.3857 72.4019 24.4244 72.5572 24.5407 72.5701C24.6053 72.5831 24.7086 72.4019 24.7603 72.4149C24.9928 72.4796 25.1349 72.7642 25.3674 72.9194C26.0778 73.3852 26.982 73.424 27.77 73.5275C27.9637 73.5533 28.0025 73.5016 28.1575 73.618C28.2479 73.6827 28.2091 73.8768 28.3125 73.9285C28.7129 74.1355 28.7129 73.6956 28.8033 73.4369C28.9325 73.618 28.9583 73.838 29.1392 73.9803C29.2384 73.9781 29.3376 73.9824 29.4363 73.9932C29.4885 74.0567 29.524 74.1323 29.5396 74.2131C29.785 74.3813 30.0563 74.3166 30.3017 74.446C30.3792 74.4848 30.5213 74.7306 30.6246 74.7953C30.8283 74.9149 31.0512 74.9981 31.2834 75.0411C31.7097 75.1575 32.3297 75.0023 32.588 75.4551C32.9239 75.0928 32.7947 75.5198 33.0272 75.6233C33.1693 75.675 33.363 75.468 33.518 75.481C33.7893 75.5198 33.8926 75.8173 33.9701 76.0243C34.1381 75.9855 34.0218 75.5198 34.0218 75.4163C34.2285 75.3904 34.2672 75.9337 34.306 76.0502C34.6289 75.8949 34.0993 75.4033 34.4481 75.2481C34.4222 75.6621 34.7452 76.0114 34.151 76.0631C34.2285 76.3089 36.1402 76.5935 36.2694 76.3736C36.2952 76.7876 36.5665 76.3995 36.6698 76.2572C36.6827 76.49 36.6052 76.8393 36.8636 76.9428C37.0444 77.0205 37.4577 76.8264 37.5223 76.6453C37.5998 76.917 37.7419 76.904 37.9098 77.0851C38.0261 77.2016 38.1036 77.4086 38.2199 77.5121C38.4394 77.6932 38.8657 77.6673 39.124 77.6285C39.6407 77.5509 39.5761 77.4474 39.757 77.9778C39.7957 77.7708 39.9249 77.3568 40.1574 77.6673C40.2995 77.8614 39.9895 78.3012 39.912 78.4823C40.1045 78.3592 40.3132 78.2634 40.532 78.1977C40.5536 78.292 40.5491 78.3904 40.5191 78.4823C40.6354 78.5392 40.7476 78.604 40.8549 78.6764C40.8618 78.5407 40.8834 78.4063 40.9195 78.2753C41.2295 78.4694 41.0099 78.8446 41.2941 79.0386C41.3716 79.0904 41.5395 79.0257 41.617 79.0645C41.772 79.1162 41.9012 79.2586 42.0304 79.3491C41.927 79.2068 41.94 78.961 41.94 78.7928C42.0045 78.8316 42.0562 78.9739 42.1208 78.9869C42.1466 78.9869 42.4179 79.0257 42.4179 79.0257C42.7021 79.2197 42.6375 79.2456 42.405 79.4914C42.4954 79.6337 42.8571 79.3879 42.9475 79.3491C42.9733 79.4009 42.9733 79.5949 43.0121 79.6337C43.0392 79.6875 43.0608 79.7438 43.0767 79.8019C43.1086 79.7756 43.1464 79.7572 43.1867 79.7482C43.2271 79.7392 43.2691 79.7399 43.3092 79.7502C43.3608 79.7631 43.7742 79.9313 43.8 79.8795C43.712 79.8495 43.6292 79.8058 43.5546 79.7502C43.7871 79.5432 43.9421 79.4267 44.1617 79.7372C44.1875 79.776 44.0971 79.9183 44.1229 79.9701C44.2263 80.1641 44.4459 80.3065 44.588 80.4617C44.6525 80.2547 44.5105 79.7243 44.8463 79.7372C45.1176 79.7502 45.3113 80.397 45.2209 80.604C45.3242 80.4876 45.9572 80.3711 46.0734 80.41C46.4093 80.5135 46.3188 80.8239 46.7322 80.3711C47.0164 80.5652 46.7709 80.6428 46.8226 80.8757C46.8587 80.8834 46.8961 80.8828 46.9319 80.8738C46.9678 80.8648 47.001 80.8478 47.0293 80.8239C46.9776 81.833 47.7268 81.0568 48.2177 81.2121C48.4114 81.2767 48.4631 81.4837 48.6568 81.5484C48.7602 81.5872 48.8893 81.4967 48.9927 81.5225C49.0831 81.5096 49.1606 81.4967 49.2381 81.4837C49.3414 81.432 49.3931 81.4837 49.3802 81.6648C49.5481 81.7554 49.4835 81.7813 49.6902 81.8072C49.8194 81.8201 49.9356 81.6907 50.0777 81.7037C50.3231 81.7425 50.2973 81.9365 50.4523 82.04C50.5982 82.1197 50.7684 82.1428 50.9302 82.1047C51.0206 82.0918 51.279 81.9753 51.3048 81.9753C51.4986 81.9753 51.3952 81.9365 51.6148 82.0918C51.7492 82.2139 51.9076 82.3064 52.0798 82.3634C52.3253 82.4281 52.7774 82.5704 52.9324 82.4023C53.1649 82.7386 53.3328 82.4928 53.6299 82.5187C53.7849 82.5316 53.8107 82.5963 53.9399 82.6092C54.1595 82.6481 54.4308 82.6092 54.6762 82.6869C55.0508 82.8033 55.0895 82.868 55.4641 82.8809C55.5287 82.855 55.6062 82.8292 55.6708 82.8033C55.6933 82.9114 55.7472 83.0105 55.8258 83.0879C56.0325 83.1267 56.1746 83.0232 56.3554 82.9068C56.4846 83.3078 56.9108 83.3466 57.2725 83.3984C57.8538 83.489 58.4092 83.5278 58.9776 83.7218C59.4562 83.8825 59.9262 84.0682 60.3855 84.2781C60.7859 84.4592 61.1605 84.7309 61.6255 84.6015C62.6589 84.3169 63.6535 83.2561 64.5061 82.6481C65.5265 81.9236 66.6244 81.3414 67.6836 80.6946C71.9204 78.1201 76.4027 75.9467 80.5878 73.2687C82.8741 71.8068 84.9925 70.0862 87.4338 68.896C87.0851 70.345 86.4909 71.8068 86.5942 73.3205C86.633 73.9285 86.8138 74.653 87.2917 75.0799C87.873 75.6103 88.5188 75.274 89.0872 74.8988C90.2885 74.0967 91.0764 72.9194 91.9677 71.8198C93.0269 70.5131 93.8407 69.1159 94.6286 67.6282C94.8095 67.8869 94.6674 68.3268 94.6803 68.6243C94.686 68.9944 94.779 69.3579 94.9515 69.6852C95.3907 70.539 96.2303 70.746 96.9924 70.1638C98.4521 69.0383 99.3046 67.0331 100.093 65.4289C100.545 66.2569 101.178 67.3177 102.25 66.7226C103.141 66.231 103.658 65.1313 103.929 64.1999C104.794 61.4055 104.549 58.637 104.665 55.8555Z" fill="#2D332F"/>
<path fill-rule="evenodd" clip-rule="evenodd" d="M103.322 39.5419C103.219 39.2961 103.18 39.3349 103.361 39.102C103.516 39.2443 103.399 39.3608 103.322 39.5419ZM107.804 54.4324C107.52 53.6174 107.701 52.7376 107.52 51.9097C107.443 51.5345 107.313 51.1593 107.275 50.7712C107.249 50.603 107.107 49.8268 107.21 49.6974C106.887 49.5034 106.887 49.3611 106.81 48.973C106.926 48.8565 106.913 48.753 106.771 48.6625C106.683 48.5446 106.588 48.4322 106.487 48.3261C106.9 48.5202 106.655 48.0156 106.616 47.7181C106.593 47.4819 106.55 47.2482 106.487 47.0195C106.396 46.7478 106.177 46.6055 106.616 46.6055C106.474 46.4373 106.254 46.2691 106.177 46.0621C106.073 45.7646 106.241 45.3894 106.035 45.1307C105.918 44.9884 105.298 44.9366 105.415 44.6132C105.466 44.4579 105.712 44.5744 105.789 44.458C106.086 44.0181 105.195 43.837 105.156 43.6559C105.105 43.4101 105.427 43.3583 105.44 43.1384C105.453 42.9184 105.117 42.5562 105.027 42.3622C104.898 42.388 104.769 42.5821 104.627 42.4915C104.601 42.4786 104.64 41.7153 104.614 41.6118C104.588 41.5083 104.523 41.2496 104.497 41.1978C104.407 41.0038 104.149 40.9132 104.097 40.6803C104.071 40.538 104.614 40.331 103.994 40.331C104.213 39.9429 103.813 39.7101 103.658 39.3737C103.464 38.9468 103.361 38.4811 103.167 38.0541C102.981 37.637 102.756 37.2384 102.495 36.8639C102.25 36.5276 102.147 36.2041 101.94 35.8548C101.901 35.829 101.862 35.7902 101.824 35.7643C101.656 35.7902 101.604 35.7125 101.669 35.5443C101.539 35.3632 101.449 35.1562 101.333 34.9622C101.204 34.7423 101.036 34.5482 100.894 34.3283C100.713 34.0307 100.661 33.7073 100.467 33.4097C100.222 33.0475 99.9506 32.737 99.7181 32.3618C99.4339 31.8961 99.1239 31.5986 98.7623 31.2363C98.5943 31.0681 98.5685 30.6283 98.3618 30.3825C98.1293 30.1108 97.9097 30.0461 97.7547 29.6968C97.5481 29.244 97.251 29.0241 96.9539 28.636C96.7085 28.3126 96.5922 27.9374 96.3209 27.6269C96.0884 27.3552 95.8301 27.1094 95.5847 26.8507C95.2747 26.5273 95.0422 26.1391 94.7321 25.8287C94.7838 25.8675 94.448 25.6087 94.4738 25.6217C94.3872 25.5885 94.2953 25.571 94.2025 25.5699C93.7117 25.2853 93.1046 24.2374 92.3812 24.7937C91.9937 25.0912 92.1875 25.6217 92.4458 25.9063C92.5621 26.0356 93.1563 26.6437 93.2854 26.3849C93.4275 26.579 93.8538 27.5363 94.2155 27.2647C94.1767 27.5881 94.3705 27.4846 94.4996 27.7045C94.5771 27.8468 94.5384 27.9245 94.603 28.1444C94.7709 28.7654 95.3909 29.3863 95.7268 29.9297C96.5664 31.2881 97.4835 32.5818 98.3102 33.9402C99.111 35.2339 100.002 36.4629 100.764 37.7825C101.63 39.2831 102.715 40.6933 103.374 42.2975C103.399 42.3492 103.58 42.4398 103.619 42.5174C103.697 42.6597 103.684 42.9055 103.735 43.0608C103.922 43.6176 104.187 44.1448 104.523 44.6261C104.807 45.0272 104.833 45.5835 105.027 46.0492C105.298 46.7219 105.595 47.3817 105.867 48.0415C106.256 49.0657 106.588 50.1109 106.861 51.1723C107.052 51.8719 107.186 52.5857 107.262 53.3069C107.313 53.9796 107.326 54.6782 107.572 55.3121C107.727 55.0922 107.92 54.7558 107.804 54.4324Z" fill="#2D332F"/>
<path fill-rule="evenodd" clip-rule="evenodd" d="M12.3341 68.8053C12.037 68.7406 11.7528 68.663 11.6883 68.3137C11.6495 68.4819 11.5978 68.6371 11.5591 68.8053C11.9208 68.8829 12.2954 68.9735 12.657 69.0511C12.6305 68.9847 12.5865 68.9267 12.5296 68.8834C12.4727 68.8401 12.4051 68.8131 12.3341 68.8053Z" fill="#2D332F"/>
<path fill-rule="evenodd" clip-rule="evenodd" d="M13.1348 12.193C13.1572 12.0958 13.1874 12.0006 13.2253 11.9083C13.2511 11.9989 13.3673 12.193 13.3028 12.2835C13.2123 12.387 13.1219 12.3353 13.1348 12.193ZM14.6074 9.39856C14.7107 9.43737 14.9174 9.45031 15.0466 9.48912C14.7236 9.7608 14.672 9.68318 14.2586 9.64437C14.2457 9.37269 14.349 9.28213 14.6074 9.39856ZM11.856 16.2422H11.9852C11.9874 16.1214 11.9831 16.0004 11.9723 15.88C12.3986 15.9706 12.1661 15.2202 12.024 15.065C12.4502 15.0779 12.6569 13.7454 12.7861 13.4867C12.9023 13.2538 13.0444 13.1632 13.1219 12.8916C13.1932 12.6517 13.2839 12.418 13.3932 12.193C13.6386 11.6625 13.9744 11.1839 13.9099 10.5629C14.1165 11.0286 14.3103 10.5629 14.4395 10.343C14.659 9.98073 15.1886 9.52793 15.2403 9.10101C15.292 8.72584 15.0078 8.7129 15.1757 8.3636C15.3437 8.0143 15.4728 8.05311 15.7699 7.93668C15.9637 7.85906 16.0024 7.94962 16.1316 7.70381C16.222 7.54857 16.1833 7.43214 16.2995 7.30277C16.3439 7.33704 16.3985 7.35528 16.4545 7.35452C16.5456 7.23704 16.6076 7.09959 16.6354 6.95347C16.695 6.75456 16.7684 6.56004 16.8549 6.3713C16.9583 6.19018 17.152 5.69858 17.2554 5.62096C17.3587 5.5304 17.9658 5.56921 17.9658 5.58214C18.2112 5.27166 17.7591 4.94823 18.3921 5.02585C18.2629 4.79299 18.7021 4.49544 18.8313 4.36607C19.1542 4.04264 19.18 3.8874 19.2446 3.48635C19.2834 3.27936 19.0508 3.30523 19.3609 3.25348C19.49 3.22761 19.6063 3.39579 19.6967 3.36992C20.0971 3.26642 19.6838 3.29229 19.7871 3.12411C19.8259 3.07236 19.9938 2.86537 19.9938 2.86537C20.005 2.78362 20.0313 2.70467 20.0713 2.63251C20.1456 2.62699 20.2192 2.61399 20.2909 2.5937C20.3296 2.51607 20.3555 2.43845 20.3942 2.36083C20.6784 2.12796 21.1047 2.01153 21.2984 1.75279C21.4276 1.58461 21.3888 1.41643 21.5568 1.24825C21.7118 1.093 21.9184 1.20943 21.9572 0.834261C21.9959 0.368529 21.5051 0.161537 21.2984 0.627269C20.743 -0.0454555 18.4437 2.43845 18.1854 2.76188C17.0358 4.17201 15.8991 5.62096 14.9561 7.18633C14.0385 8.70522 13.2768 10.3133 12.6827 11.986C12.4144 12.7894 12.2029 13.6108 12.0498 14.444C11.9852 14.7286 11.559 15.9706 11.7398 16.2552C11.7915 16.2552 11.8173 16.2422 11.856 16.2422Z" fill="#2D332F"/>
<path fill-rule="evenodd" clip-rule="evenodd" d="M102.702 50.8747C102.896 50.7453 102.896 50.7453 102.934 50.4995C102.676 50.5513 102.676 50.5513 102.702 50.8747Z" fill="#2D332F"/>
<path fill-rule="evenodd" clip-rule="evenodd" d="M6.7539 67.5117C6.81849 67.6411 6.90891 67.6799 7.03808 67.6023C7.08975 67.6928 6.58598 67.1495 6.7539 67.5117Z" fill="#2D332F"/>
<path fill-rule="evenodd" clip-rule="evenodd" d="M15.5245 8.16943C15.2145 8.76454 15.602 8.33762 15.5762 8.53167C15.602 8.4023 15.6537 8.22118 15.5245 8.16943Z" fill="#2D332F"/>
<path fill-rule="evenodd" clip-rule="evenodd" d="M65.0227 17.4326C65.1519 18.5064 66.6244 18.0018 66.9473 17.355C67.1928 16.8892 67.7869 15.0134 67.1411 14.6252C66.6632 14.3277 66.5598 15.5955 66.4306 15.8672C66.2369 16.3329 66.069 16.0095 65.6298 16.1259C65.1519 16.2553 64.971 16.9798 65.0227 17.4326Z" fill="#2D332F"/>
<path fill-rule="evenodd" clip-rule="evenodd" d="M63.4211 15.4662C63.9507 15.5826 64.4544 15.5179 64.829 15.1039C65.0357 14.8711 65.3069 14.4183 64.9323 14.1983C64.5965 13.9913 64.209 14.47 63.8602 14.3665C63.3823 14.2371 63.6277 13.7197 63.4598 13.3704C62.8656 13.7326 62.5298 15.2721 63.4211 15.4662Z" fill="#2D332F"/>
<path fill-rule="evenodd" clip-rule="evenodd" d="M63.9637 18.1699C63.4599 18.1699 63.4599 18.7909 63.7182 19.0626C63.9766 19.3213 64.6095 19.5801 64.9453 19.3731C65.63 18.985 64.377 18.2087 63.9637 18.1699Z" fill="#2D332F"/>
<path fill-rule="evenodd" clip-rule="evenodd" d="M34.6031 42.8926C34.7064 42.9444 35.0294 43.2161 35.1585 43.0867L34.5902 42.5175C34.4998 42.6339 34.4223 42.8021 34.6031 42.8926Z" fill="#2D332F"/>
<path fill-rule="evenodd" clip-rule="evenodd" d="M32.2264 15.6212L32.0714 15.7376C32.2522 15.8929 32.2523 15.9317 32.4331 15.7894C32.3735 15.7227 32.3038 15.666 32.2264 15.6212Z" fill="#2D332F"/>
<path fill-rule="evenodd" clip-rule="evenodd" d="M66.4178 51.1851C66.3144 51.004 66.1207 51.3404 65.9915 51.3921C65.7848 51.4827 65.604 51.004 65.6686 51.5733C65.1906 51.3533 64.9065 51.8579 64.5965 52.1166C64.1573 52.4918 63.6277 52.6858 63.3435 53.2033C64.7127 53.5267 66.1982 52.3495 67.2186 51.5733C67.3865 51.4439 68.2132 50.81 67.6578 50.7453C67.4253 50.7323 66.5857 51.4956 66.4178 51.1851Z" fill="#2D332F"/>
<path fill-rule="evenodd" clip-rule="evenodd" d="M66.0174 50.0855C66.2886 49.8785 65.7074 49.8527 65.6169 49.8397C65.6299 50.0079 65.6299 50.1761 65.6428 50.3443C65.7719 50.2537 65.8882 50.1761 66.0174 50.0855Z" fill="#2D332F"/>
<path fill-rule="evenodd" clip-rule="evenodd" d="M65.0098 50.7841C65.0873 50.7324 65.3069 50.5771 65.1648 50.4607C65.0969 50.5035 65.0388 50.5602 64.9943 50.6271C64.9498 50.694 64.9199 50.7695 64.9065 50.8488C64.9452 50.8351 64.9805 50.813 65.0098 50.7841Z" fill="#2D332F"/>
<path fill-rule="evenodd" clip-rule="evenodd" d="M42.9346 37.2002C42.8632 37.2166 42.8002 37.2584 42.7574 37.318C42.7146 37.3775 42.695 37.4506 42.7021 37.5236C42.7739 37.5079 42.8373 37.4662 42.8802 37.4065C42.9232 37.3468 42.9425 37.2733 42.9346 37.2002Z" fill="#2D332F"/>
</svg>
