<svg width="328" height="252" viewBox="0 0 328 252" fill="none" xmlns="http://www.w3.org/2000/svg">
<path fill-rule="evenodd" clip-rule="evenodd" d="M102.227 114.554C103.405 126.601 104.621 138.647 105.799 150.694C112.298 146.97 118.796 143.283 125.294 139.559V174.217C125.294 174.863 124.914 177.029 125.294 177.599C125.598 178.055 127.993 178.093 128.563 178.169C132.249 178.701 135.935 179.157 139.621 179.537C149.35 180.601 159.724 182.159 169.491 180.905C177.965 179.841 186.174 176.801 193.926 173.305C196.662 172.089 199.322 170.759 201.944 169.353C202.514 169.049 204.528 168.365 204.832 167.757C205.098 167.263 204.49 165.515 204.414 164.983C204.072 162.778 203.768 160.574 203.426 158.37L198.866 127.627L207.493 136.253C208.177 136.937 209.469 138.837 210.381 139.141C211.065 139.369 212.775 138.685 213.459 138.533C218.361 137.583 223.225 136.633 228.128 135.721C229.268 135.493 231.852 135.493 232.802 134.809C233.334 134.429 233.334 133.669 233.524 132.985C234.702 128.311 235.918 123.636 237.096 118.962C237.324 118.126 238.502 115.466 238.198 114.63C238.084 114.326 237.552 114.136 237.248 113.908C229.876 109.386 222.503 104.901 215.093 100.379C211.065 97.909 206.999 95.4389 202.97 92.9688C201.26 91.9427 199.208 90.0806 197.27 89.4726C196.092 89.1306 194.344 89.3966 193.128 89.3586L185.603 89.1306C185.223 89.1306 183.855 88.8266 183.513 89.0546C183.247 89.2446 183.361 89.5106 183.247 89.9666C183.075 91.1129 182.961 92.2671 182.905 93.4248C182.829 94.3369 182.981 96.0089 182.563 96.845C182.297 97.377 182.639 97.149 182.297 97.415C181.879 97.719 180.511 97.605 180.017 97.681C177.547 97.985 175.115 98.2511 172.645 98.5551C169.719 98.8971 166.793 99.5431 163.828 99.2391C159.382 98.7831 154.594 98.8211 150.224 97.871C149.084 97.643 148.666 96.997 147.792 96.123C146.081 94.4129 144.409 92.7028 142.661 90.9927C141.825 90.1566 142.167 90.3087 141.293 90.6127C140.191 90.9927 139.089 91.9427 138.101 92.5508C134.301 94.8689 130.501 97.187 126.738 99.4671L103.595 113.566C103.171 113.937 102.713 114.268 102.227 114.554Z" fill="white"/>
<path fill-rule="evenodd" clip-rule="evenodd" d="M323.627 116.026C318.838 134.153 309.262 153.914 289.919 159.652C285.207 161.058 280.646 162.122 275.744 161.59C275.313 161.565 274.881 161.577 274.452 161.628C273.654 161.628 274.338 161.932 273.464 161.666C272.78 161.438 272.134 160.906 271.412 160.678C269.512 160.032 267.46 159.918 265.484 159.424C260.621 158.164 255.826 156.655 251.119 154.902C248.915 154.104 246.939 152.964 244.887 151.9C242.796 150.798 240.592 150.114 238.464 149.087C236.792 148.289 233.942 147.263 232.764 145.743C231.51 144.147 233.258 140.727 233.752 139.055C235.424 133.279 237.438 127.578 238.692 121.688C243.062 126.742 249.143 129.896 255.413 131.911C258.821 133.008 262.318 133.809 265.864 134.305C269.094 134.761 272.552 135.293 275.782 134.647C278.214 134.153 281.254 133.051 283.003 131.189C283.611 130.542 284.371 129.326 284.029 128.338C283.573 127.122 282.319 127.692 281.596 126.78C280.988 125.982 281.102 124.12 280.874 123.17C280.535 121.468 280.078 119.792 279.506 118.154C278.404 114.962 276.998 111.732 276.694 108.349C276.408 105.447 277.061 102.53 278.556 100.027C279.24 98.8108 280.988 95.5047 282.699 95.6567C284.561 95.8087 282.053 103.713 281.977 105.309C281.634 111.694 282.509 118.534 285.777 124.12C287.031 126.248 288.855 128.756 291.515 129.022C294.365 129.288 296.645 127.084 298.013 124.804C301.32 119.294 299.647 111.732 297.975 105.917C295.923 98.8108 290.565 93.9466 287.183 87.5623C292.237 88.0563 294.935 91.2865 297.519 95.3527C300.447 99.9781 302.532 105.086 303.676 110.439C304.246 113.062 303.866 115.722 303.866 118.382C303.866 119.256 303.866 122.524 305.31 122.41C306.868 122.258 307.362 118.61 307.59 117.47C308.122 114.886 308.654 112.34 309.11 109.717C309.908 105.157 310.25 100.445 311.2 95.9227C311.352 95.1627 311.694 93.0345 312.834 93.6046C313.708 94.0606 313.594 97.3288 313.594 98.1268C313.67 100.027 313.784 101.889 313.784 103.789C313.822 106.601 313.252 109.489 313.518 112.264C313.708 114.088 314.658 116.102 315.874 113.632C317.09 111.199 317.318 108.159 318.002 105.537C318.724 102.801 319.446 99.9889 320.929 97.5568C321.347 96.8727 321.803 95.8087 322.715 96.1127C323.399 96.3407 323.893 97.9368 324.083 98.4688C325.033 100.977 324.843 103.789 324.805 106.449C324.835 109.679 324.439 112.899 323.627 116.026ZM230.598 120.738C230.071 120.637 229.538 120.574 229.002 120.548C228.698 120.51 229.04 119.94 228.28 120.092C228.345 120.267 228.452 120.425 228.591 120.55C228.73 120.676 228.897 120.766 229.078 120.814C227.938 121.194 227.102 120.244 226.304 120.13C225.544 120.016 225.506 120.13 224.784 120.928C223.986 119.94 224.138 120.548 223.491 120.548C223.263 120.548 223.225 120.928 222.845 120.852C222.503 120.814 222.465 120.282 222.275 120.244C221.173 119.902 220.071 121.574 218.817 120.13C218.513 121.65 215.055 119.75 213.763 120.016C212.357 120.282 212.965 120.776 211.863 119.94C210.799 119.142 211.103 119.674 209.849 120.32C209.887 120.32 209.165 120.814 209.203 120.814C208.329 120.7 208.405 119.826 207.303 119.864C206.163 119.902 205.669 120.814 204.605 119.712C204.377 120.548 204.339 120.168 203.768 120.396C203.627 120.436 203.478 120.435 203.337 120.395C203.196 120.355 203.069 120.276 202.97 120.168C202.943 120.274 202.885 120.37 202.804 120.444C202.723 120.518 202.623 120.568 202.514 120.586C201.906 120.624 200.804 120.738 200.272 120.434C199.474 120.016 200.12 119.826 199.55 119.37C199.284 120.7 198.752 120.396 197.612 120.548C196.738 120.624 196.548 120.358 195.712 120.244C194.876 120.13 193.812 120.434 193.014 120.586C192.672 120.624 192.216 120.89 191.912 120.776C191.608 120.7 191.456 120.472 191.304 120.396C191.076 120.32 191.114 120.13 190.734 120.016C190.468 119.94 190.012 120.206 189.746 120.244C187.846 120.548 186.06 120.548 184.273 119.826C185.148 121.384 182.221 120.548 181.689 119.902C181.043 120.928 180.245 120.206 178.915 120.282C177.623 120.358 175.723 120.738 175.191 119.142C174.921 119.679 174.546 120.157 174.089 120.548C173.253 120.966 173.139 120.358 172.379 120.092C171.315 119.75 171.543 120.396 170.897 120.548C169.795 120.776 169.187 119.978 168.199 119.56C168.161 120.206 168.123 120.586 167.591 121.004C167.097 119.218 165.348 121.156 165.652 118.762C164.968 119.18 164.018 119.522 163.828 120.434C164.968 120.13 163.942 120.852 163.904 120.89C163.752 120.966 163.258 120.282 163.144 120.168C163.1 120.496 163.075 120.825 163.068 121.156C162.645 120.904 162.239 120.625 161.852 120.32C161.51 120.13 162.004 119.75 161.434 119.75C161.13 119.75 160.826 120.358 160.522 120.434C160.066 120.51 160.294 119.864 160.066 119.864C159.762 119.902 159.268 120.32 159.04 120.32C158.318 120.282 158.812 119.94 158.242 119.788C157.216 119.522 157.292 120.168 156.57 120.396C154.898 120.928 155.088 118.42 153.378 120.092C152.96 120.51 152.732 121.118 152.162 121.08C151.022 121.004 151.402 119.636 151.668 118.99C151.896 119.104 147.488 121.384 147.526 121.308C147.564 120.776 148.248 120.358 147.64 119.864C147.146 120.966 146.614 120.966 145.435 121.194C144.865 121.308 144.751 121.422 144.143 121.194C143.763 121.042 143.497 120.434 143.117 120.396C142.876 120.613 142.622 120.816 142.357 121.004C141.711 121.308 141.331 120.966 140.685 121.08C140.153 121.194 139.963 121.65 139.431 121.498C138.709 121.346 139.127 120.51 138.177 120.738C137.835 120.814 137.645 121.46 137.113 121.574C136.315 121.764 135.289 121.384 134.453 121.612C133.866 121.751 133.269 121.84 132.667 121.878C132.173 121.916 132.401 121.536 131.489 121.954L131.109 121.004C130.653 121.422 130.235 121.802 129.779 122.22C129.688 121.859 129.637 121.49 129.627 121.118C128.981 121.764 128.145 121.878 127.233 121.954C126.35 122.051 125.474 122.203 124.61 122.41C124.306 122.448 123.546 122.562 123.318 122.448C123.356 122.448 122.862 122.258 123.014 122.296C122.938 122.182 122.9 122.03 122.824 121.916C122.748 121.536 122.482 121.536 122.026 121.878C121.798 121.84 121.342 121.536 121.114 121.612C120.506 121.802 120.582 122.296 119.974 122.22C119.594 122.182 119.366 121.612 118.986 121.574C118.378 121.498 117.808 122.22 117.276 122.372C118.986 121.916 115.072 122.258 116.288 122.296C115.49 122.258 114.654 122.22 113.932 122.6C113.514 122.334 114.008 121.764 113.59 121.536C113.21 121.308 113.172 121.878 113.134 121.878C113.362 121.802 113.248 122.296 113.02 122.372C112.298 122.638 111.69 121.954 111.652 121.308C111.044 122.258 110.854 121.878 109.942 121.916C109.03 121.992 108.27 122.448 107.357 122.448C105.571 122.448 104.355 121.802 103.747 120.206C105.647 120.434 107.585 119.218 109.448 119.484C110.056 119.598 110.436 120.054 110.968 119.94C111.614 119.826 112.108 119.104 112.944 119.028C114.806 118.838 116.668 119.028 118.568 118.724C120.841 118.35 123.147 118.223 125.446 118.344C127.195 118.458 128.639 117.812 130.425 117.66C132.743 117.508 135.061 117.47 137.379 117.356C139.735 117.242 142.319 116.862 144.675 116.976C145.37 117.039 146.068 117.064 146.766 117.052C147.07 117.052 147.374 116.824 147.678 116.862C148.096 116.9 148.286 117.318 148.742 117.318C149.502 117.28 150.3 116.672 151.174 116.672C152.618 116.634 154.1 116.634 155.544 116.558C156.836 116.482 158.204 116.178 159.496 116.216C160.408 116.216 160.636 117.014 161.168 117.09C162.118 117.242 166.907 114.506 167.325 116.938C169.833 115.228 173.177 116.672 175.951 116.368C179.523 115.95 183.171 116.33 186.744 116.178C190.433 116.045 194.128 116.159 197.802 116.52C199.29 116.697 200.789 116.76 202.286 116.71C202.97 116.672 203.73 116.482 204.415 116.672C204.567 116.71 205.821 117.584 205.669 117.622C206.353 117.014 205.897 116.9 207.075 116.9C207.987 116.862 208.861 117.09 209.811 117.128C211.483 117.242 213.117 117.014 214.789 117.052C216.157 117.09 217.525 117.28 218.893 117.318C220.375 117.318 222.161 117.356 223.225 118.572L222.883 117.432C224.556 117.546 226.19 118.154 227.9 117.888C227.482 118.306 227.026 118.648 226.874 119.218C227.786 119.104 228.394 118.458 229.344 118.458C230.142 118.458 230.332 118.838 231.168 118.344C231.282 118.99 231.358 119.636 231.472 120.244C232.65 119.978 231.89 119.104 231.966 118.306C232.916 118.61 233.714 118.268 233.372 119.636C232.916 120.548 231.586 121.042 230.598 120.738ZM228.926 132.557C228.508 133.697 224.974 133.051 224.138 132.937C223.035 132.785 221.819 132.519 220.831 132.405C220.712 132.247 220.571 132.106 220.413 131.987C220.303 132.172 220.127 132.308 219.919 132.367C219.463 132.481 219.463 132.937 218.855 132.823C218.817 133.507 219.311 133.127 219.691 133.393C218.741 134.039 219.197 133.279 218.665 133.317C218.613 133.227 218.533 133.156 218.437 133.115C218.341 133.074 218.235 133.065 218.133 133.089C217.832 133.16 217.548 133.289 217.297 133.469C217.069 133.735 216.879 133.735 216.689 133.507C216.536 133.348 216.337 133.241 216.119 133.203C215.207 133.355 214.941 133.773 213.877 133.697C212.395 133.583 210.799 134.001 209.317 133.773C208.405 133.659 206.885 132.215 206.467 133.621C205.821 132.595 204.833 131.873 204.225 130.847C207.037 130.694 209.811 130.504 212.623 130.39C215.093 130.314 217.753 130.58 220.033 130.466C222.161 130.352 224.442 130.124 226.646 129.934C229.002 129.706 229.762 130.2 228.926 132.557ZM155.962 132.709C156.988 132.975 157.938 132.367 158.926 132.557C159.268 132.633 159.914 133.203 160.066 133.241C160.332 133.279 161.13 132.671 161.472 132.595C163.765 132.145 166.117 132.094 168.427 132.443C169.567 132.595 169.757 132.063 170.745 131.835C171.771 131.569 173.253 131.759 174.355 131.683C176.939 131.493 179.523 131.645 182.069 131.455C184.691 131.265 187.314 131.151 189.936 131.037C191.722 130.961 196.016 129.934 197.498 131.265C198.714 132.367 197.156 134.267 195.94 134.685C195.028 135.027 194.572 134.343 193.926 134.381C193.166 134.457 193.432 135.369 192.748 134.533C192.33 135.369 189.632 135.027 188.872 135.065C187.2 135.179 185.756 135.521 184.615 133.963C184.691 134.419 184.767 134.875 184.843 135.331C183.323 134.533 181.689 134.799 180.397 135.065C179.751 135.217 177.737 136.167 177.053 135.749C176.559 135.445 177.433 134.989 176.597 134.723C176.179 134.609 175.419 135.293 174.887 135.255C173.443 135.141 173.861 134.191 172.417 135.407C172.188 135.183 172.017 134.907 171.918 134.603C171.818 134.298 171.794 133.974 171.847 133.659C170.821 134.533 170.897 136.015 169.035 135.749C168.351 135.635 168.199 134.951 167.857 134.799C167.097 134.533 167.021 135.027 166.337 135.407C166.083 135.591 165.8 135.732 165.5 135.825C164.892 135.901 164.816 135.597 164.702 135.635C164.284 135.673 163.79 135.901 163.296 135.749C162.878 135.635 162.726 134.875 161.966 135.027C161.244 135.179 161.244 135.673 161.358 136.433C160.636 136.357 160.218 135.977 159.686 135.521C159.154 136.775 158.014 135.749 157.368 136.813C156.532 135.825 156.038 136.091 155.012 135.141C155.05 135.521 155.126 135.939 155.164 136.319C154.366 136.167 154.024 135.597 153.34 136.357C152.694 135.141 150.68 136.889 149.654 135.711C149.198 137.193 146.195 136.851 144.903 136.889C143.763 136.927 142.927 136.813 141.825 137.079C140.771 137.351 139.684 137.478 138.595 137.459C137.931 137.341 137.255 137.302 136.581 137.345C135.517 137.459 134.567 138.029 133.465 137.763C131.793 137.383 130.767 135.179 132.629 134.191C133.921 133.545 136.201 133.773 137.607 133.659C139.925 133.469 142.547 133.013 144.903 133.241C146.728 133.393 148.4 132.975 150.224 132.785C151.63 132.633 153.91 132.405 154.822 133.773C155.24 133.355 155.202 132.519 155.962 132.709ZM130.425 151.672C130.159 150.418 140.837 149.733 141.901 149.657C144.105 149.467 146.347 149.353 148.59 149.315C150.414 149.277 152.124 149.619 153.948 149.353C155.658 149.087 157.71 148.555 159.192 149.771C159.42 148.099 165.843 148.935 167.059 148.935C172.379 148.973 177.471 148.973 182.601 148.631C185.528 148.441 188.644 148.175 191.608 148.327C192.938 148.403 194.002 148.745 195.332 148.441C196.206 148.251 197.118 147.833 197.954 148.403C198.904 149.087 199.322 151.444 198.676 152.394C198.182 153.116 197.764 153.04 197.004 152.888C195.826 152.698 194.952 152.432 193.736 152.926C193.491 152.951 193.249 153.002 193.014 153.078C191.646 153.192 189.784 154.142 188.606 153.04C189.062 153.116 189.784 152.28 189.176 152.204C188.72 152.166 188.454 152.622 188.112 152.774C186.934 153.306 186.288 153.154 185.604 152.014C184.159 153.268 184.007 152.926 183.361 151.368C182.867 151.748 182.753 152.622 182.373 152.926C182.335 152.964 182.563 153.496 182.259 153.496C181.993 153.458 181.917 153.04 181.727 153.04C181.613 153.002 181.537 152.66 181.423 152.622C181.309 152.584 181.157 152.85 181.005 152.812C180.625 152.812 179.485 153.648 179.903 152.47C179.295 153.23 179.029 152.736 178.839 152.052C178.155 152.584 177.471 153.116 176.749 153.61C176.445 152.698 175.875 152.964 175.191 153.268C175.419 152.66 175.267 152.052 174.735 152.508C174.431 152.774 174.241 153.534 173.899 153.876C172.645 152.584 172.189 152.964 170.441 153.116C169.757 153.192 168.959 153.306 168.351 152.888C167.819 152.546 167.515 151.254 166.641 152.28C166.831 152.052 166.527 153.838 166.489 154.104C166.105 153.834 165.77 153.5 165.5 153.116C164.968 154.142 163.638 153.23 162.536 153.42C160.788 153.762 159.002 154.294 157.444 153.002C157.33 153.42 156.076 153.952 156.076 153.952C156.152 153.192 156.608 153.458 155.658 153.344C155.468 153.306 155.278 153.648 155.126 153.686C154.519 153.743 153.909 153.743 153.302 153.686C150.908 153.61 148.742 154.142 146.386 154.332C145.587 154.408 144.637 154.522 143.915 154.218C143.155 153.914 143.155 153.572 142.395 153.762C142.623 153.686 141.901 154.484 141.939 154.446C141.825 154.522 141.407 154.142 141.255 154.18C141.222 154.349 141.171 154.515 141.103 154.674C140.913 154.636 140.723 154.636 140.533 154.598C140.039 154.674 139.545 154.142 139.089 154.142C139.165 154.142 137.797 154.674 137.835 154.712C136.847 154.218 137.151 154.37 135.897 154.674C134.719 154.94 133.579 154.902 132.401 155.054C128.791 155.548 130.843 153.8 130.425 151.672ZM127.385 169.038C126.738 168.126 128.487 167.784 129.019 167.708C129.931 167.556 131.147 167.822 131.755 167.708C132.667 167.48 133.579 166.948 134.605 166.834C135.935 166.644 137.227 166.644 138.557 166.53C139.021 166.444 139.491 166.393 139.963 166.378C140.609 166.416 140.875 166.758 141.369 166.758C142.243 166.758 143.345 166.226 144.219 166.112C145.359 165.998 146.538 165.922 147.678 165.846C150.11 165.732 152.504 165.77 154.974 165.77C156.076 165.77 159.04 164.63 159.61 165.922C160.37 164.934 162.346 165.086 163.448 165.048C165.386 165.01 167.287 164.82 169.225 164.706C170.897 164.63 172.721 164.972 174.355 164.744C175.267 164.592 175.533 164.326 176.559 164.44C177.319 164.554 178.459 164.136 179.105 164.326C179.067 164.326 179.903 164.858 179.637 164.858C179.941 164.858 179.903 165.048 180.245 164.934C180.663 164.82 180.473 164.288 181.347 164.098C182.715 163.794 184.501 164.136 185.908 164.06C187.276 163.984 188.644 163.946 190.012 163.946C190.658 163.946 191.418 163.794 192.026 163.908C192.33 163.984 192.976 164.364 193.204 164.326C193.926 164.212 194.306 163.718 195.256 163.756C196.321 163.807 197.387 163.781 198.448 163.68C199.512 163.604 199.664 163.452 200.196 164.326C200.728 165.2 200.88 166.34 199.892 166.948C200.5 166.91 201.298 167.746 200.538 168.202C200.082 168.506 199.17 167.86 198.638 167.898C197.954 167.974 197.422 168.316 196.7 168.316C195.94 168.354 195.142 168.544 194.382 168.544C193.584 168.544 193.014 168.202 192.254 168.354C191.608 168.468 191.532 169.038 190.734 168.544C190.354 168.316 190.278 167.442 189.746 167.442C189.024 167.442 189.328 168.354 188.91 168.81C188.796 167.48 187.77 169.685 187.352 168.05C186.972 168.582 185.566 169.343 184.919 168.924C184.311 168.544 184.501 167.632 184.235 166.986C183.817 168.126 182.677 169.342 182.753 167.252C182.183 167.936 180.701 167.822 181.081 169.038C180.625 169.038 180.511 168.392 180.131 168.316C179.789 168.278 179.523 168.544 179.485 168.506C179.675 168.506 178.953 168.772 178.953 168.772C179.447 168.658 177.547 168.506 177.851 168.506C177.395 168.506 176.863 168.848 176.369 168.848C175.913 168.848 175.419 168.658 174.963 168.62C173.747 168.468 174.013 168.734 173.253 169.114C172.987 169.266 172.911 169.495 172.493 169.457C172.189 169.419 172.075 169.038 172.075 169.038C171.657 169 171.961 168.848 171.315 168.924C171.239 169.038 171.163 169.19 171.087 169.305C170.99 169.448 170.843 169.551 170.674 169.593C170.506 169.635 170.328 169.614 170.175 169.533C169.225 169.723 166.109 170.597 166.413 169C165.919 169.228 165.462 169.457 164.968 169.685C164.778 168.392 162.156 170.103 161.586 170.217C160.826 170.331 160.788 170.027 160.066 169.875C159.952 169.837 159.686 170.255 159.382 170.217C158.622 170.065 158.47 169.989 158.356 169.152C157.786 170.179 157.33 169.723 156.342 169.875C156.114 169.913 155.962 170.331 155.658 170.255C155.43 170.217 155.43 169.799 155.278 169.723C155.126 169.685 155.164 169.343 154.936 169.305C154.708 169.266 153.872 169.913 153.644 170.027C153.112 170.255 152.238 170.635 151.744 170.521C151.098 170.369 151.402 169.913 150.49 169.951C149.046 170.027 148.476 171.243 147.602 169.342C147.184 170.103 147.26 170.331 146.614 170.559C146.157 170.749 144.941 170.559 144.295 170.521C141.635 170.407 139.013 171.319 136.353 171.091C135.175 170.977 134.225 170.749 133.047 170.939C131.831 171.129 130.615 171.433 129.361 171.547C128.715 171.623 127.385 171.775 127.08 170.977C126.928 170.331 127.955 169.837 127.385 169.038ZM132.591 198.414C129.133 200.732 126.244 203.886 123.09 206.584C119.898 209.283 117.352 212.247 114.502 215.249C111.842 217.985 109.41 220.607 106.217 222.697C104.203 224.027 102.379 225.623 100.289 226.877C98.731 227.79 96.3749 229.044 97.1349 226.193C97.933 223.267 99.3391 220.341 100.593 217.605C102.379 213.729 104.165 209.891 106.103 206.128C106.825 204.722 107.243 203.278 108.384 202.138C109.638 200.884 110.512 199.288 111.88 198.11C117.618 193.17 126.282 196.97 132.591 198.414ZM143.459 200.086C141.901 200.922 140.115 201.112 138.481 201.644C137.075 202.1 135.745 202.936 134.225 203.012C135.631 201.986 136.809 200.542 138.367 199.744C140.115 198.87 141.711 199.516 143.459 200.086ZM212.471 206.964C206.695 205.026 201.298 202.138 195.674 199.82C194.686 199.402 187.086 196.932 187.238 195.716C192.558 194.728 198.068 193.056 203.388 194.88C208.253 196.552 212.205 200.542 215.967 203.848C216.955 204.722 222.997 208.675 222.465 209.929C222.085 210.803 219.159 210.575 218.475 210.385C217.601 210.157 217.069 209.625 216.385 209.017C215.213 208.104 213.888 207.409 212.471 206.964ZM201.792 174.359C202.666 173.561 203.198 172.307 204.034 171.585C205.099 170.635 206.847 171.091 208.025 171.585C211.559 173.067 214.599 175.575 218.095 177.133C221.971 178.843 225.354 181.161 228.888 183.555C232.08 185.721 235.576 187.545 238.844 189.598C242.188 191.726 245.913 193.094 249.295 195.146C252.753 197.236 256.173 199.288 259.479 201.606C265.37 205.672 271.526 209.891 275.896 215.667C278.193 218.718 280.203 221.975 281.901 225.395C283.383 228.436 285.017 232.654 283.079 235.846C281.216 238.886 278.024 241.28 275.364 243.56C274.338 244.434 273.388 245.46 272.058 245.84C270.462 246.296 268.562 246.182 266.928 246.296C258.111 247.019 249.865 246.334 241.2 244.776C232.802 243.256 224.404 242.42 215.929 241.356C211.179 240.748 206.391 240.064 201.678 239.076C199.664 238.658 197.612 238.164 195.674 237.594C193.964 237.1 192.52 235.96 190.734 235.542C183.247 233.68 174.659 232.958 167.249 229.804C173.823 227.067 180.777 225.433 187.542 223.153C194.61 220.759 201.526 218.745 209.013 218.099C212.851 217.757 216.309 216.769 219.995 215.743C223.53 214.755 227.178 214.451 230.826 214.033C232.422 213.843 237.02 214.147 237.552 212.019C238.35 208.903 233.828 208.523 231.928 208.789C229.192 209.169 226.95 209.853 224.86 207.61C222.731 205.33 220.641 202.974 218.475 200.732C214.447 196.552 210.305 191.726 204.605 189.826C197.65 187.545 189.632 189.712 182.677 191.004C175.381 192.372 168.047 193.702 160.864 195.678C157.9 196.514 154.062 198.338 150.984 198.034C147.944 197.73 144.485 197.236 141.559 196.362C140.229 195.982 139.127 195.222 137.949 194.538C136.391 193.664 134.719 193.094 133.085 192.372C129.779 190.966 126.548 189.674 122.938 189.142C119.936 188.685 116.706 188.419 113.78 189.446C110.93 190.472 108.384 192.6 106.369 194.842C104.203 197.274 102.417 200.048 100.631 202.784C99.7951 204.114 98.731 205.254 97.857 206.546C97.0969 207.61 96.6789 208.827 95.8809 209.891C94.1328 212.247 92.9167 215.249 91.8527 217.985C90.6746 221.025 89.3445 224.635 89.6486 227.904C89.7626 229.158 89.8766 230.792 90.3326 231.97C90.9406 233.452 91.8147 233.414 93.0687 233.946C95.2348 234.896 95.8429 237.518 98.655 237.024C101.277 236.53 103.557 234.364 105.457 232.654C107.966 230.412 110.36 228.056 112.716 225.661C115.224 223.23 117.501 220.571 119.518 217.719C120.278 216.579 120.886 215.325 121.798 214.299C122.938 213.007 124.268 212.855 125.826 212.323C139.545 207.8 153.34 203.43 167.477 200.428C170.859 199.706 174.279 198.794 177.623 197.844C181.157 196.818 182.981 197.92 185.908 199.82C191.988 203.848 199.208 206.698 205.973 209.321C208.101 210.157 211.521 210.195 213.193 211.829C203.312 213.349 193.888 216.237 184.349 219.125C179.637 220.531 174.887 221.785 170.175 223.153C165.462 224.521 160.902 226.269 156.266 227.828C151.63 229.348 146.728 229.994 142.053 231.4C137.309 232.784 132.487 233.888 127.613 234.706C122.672 235.58 117.732 236.606 112.754 237.404C110.474 237.784 108.194 238.126 105.951 238.658C103.747 239.152 101.619 240.33 99.4151 240.596C89.5346 241.812 79.844 244.51 70.0015 246.03C62.6672 247.171 49.8605 248.767 45.1103 241.394C40.322 233.984 46.2123 225.319 51.4566 220.037C54.7418 216.762 58.3443 213.821 62.2111 211.259C66.3153 208.485 70.2676 205.52 74.4098 202.746C83.7203 196.514 93.8288 191.422 103.823 186.405C108.612 184.011 113.248 181.427 117.922 178.767C120.24 177.475 121.532 179.565 123.356 181.009C124.8 182.149 127.461 184.923 129.475 183.631C129.551 184.087 129.627 184.543 129.703 185.037C130.311 184.771 130.881 184.505 131.489 184.239C131.869 185.265 131.831 185.911 132.933 186.481C133.617 186.823 135.061 187.203 135.707 186.633C135.821 187.051 135.973 187.469 136.087 187.849C136.657 187.811 136.771 186.177 136.885 185.797C137.873 187.203 139.203 188.419 140.913 188.8C140.913 188.724 140.647 187.545 140.647 187.545C141.179 187.203 141.863 188.647 142.167 188.952C143.117 189.94 143.687 189.788 144.751 188.99C144.827 189.066 145.169 190.016 145.245 189.978C145.473 189.902 145.891 189.066 145.967 189.028C145.891 190.092 147.982 190.32 148.742 190.092C148.59 189.788 148.4 189.446 148.248 189.142C150.832 188.8 151.82 191.536 154.29 191.384C156.114 191.27 154.632 190.89 155.696 190.092C156.608 189.408 156.76 190.89 156.836 190.852C157.009 190.674 157.15 190.469 157.254 190.244C157.596 191.536 160.256 192.676 159.952 190.548C160.978 190.966 161.738 191.65 162.878 191.802C164.284 191.992 165.767 191.688 167.173 191.574C170.175 191.308 173.025 190.7 175.761 189.332C177.357 188.495 179.105 187.773 180.625 186.785C181.879 185.949 184.311 183.441 185.984 184.543C185.566 183.251 187.58 184.467 187.656 182.795C187.998 183.023 188.302 183.289 188.644 183.517C188.834 183.099 188.796 182.415 189.062 182.035C189.404 181.503 189.594 181.807 189.898 181.541C190.24 181.199 190.544 180.363 190.962 180.097C191.38 179.831 191.874 180.135 192.33 179.907C193.014 179.565 196.016 176.259 195.522 179.109C196.814 178.653 195.826 178.273 195.978 177.399C196.32 175.689 197.08 176.905 197.878 177.057C199.17 177.285 199.132 176.259 199.854 175.461C200.5 174.739 201.754 174.435 201.298 173.219C201.64 173.371 201.716 173.865 201.792 174.359ZM124.42 137.611C123.394 138.751 122.634 138.257 121.532 138.105C121.418 137.687 121.19 137.649 120.924 137.953C120.592 138.135 120.233 138.264 119.86 138.333C118.948 138.561 117.998 138.447 117.086 138.789C117.124 138.485 117.428 137.953 117.238 137.649C116.288 138.295 115.718 138.713 114.54 138.751C113.59 138.751 111.956 138.029 111.158 138.903C111.12 138.561 111.12 138.219 111.082 137.915C110.707 138.102 110.371 138.361 110.094 138.675C110.107 138.209 109.96 137.753 109.676 137.383C109.068 138.675 108.384 138.713 107.167 138.219C107.319 138.295 105.951 137.459 105.989 137.687C105.571 135.863 112.45 136.015 113.172 135.939C114.996 135.749 116.782 135.635 118.606 135.483C120.316 135.331 121.608 135.065 122.786 136.509C122.216 134.381 127.233 134.495 124.42 137.611ZM45.3383 105.499C45.5283 108.615 46.2123 111.96 44.9963 114.962C44.0082 117.394 42.0701 120.13 39.98 121.688C35.6858 124.918 32.0376 120.966 31.4295 116.596C30.8215 112.074 32.0376 106.525 35.9518 103.713C38.2699 102.041 40.55 102.155 43.2482 102.725C43.8942 102.839 44.9202 102.801 45.2623 103.447C45.3003 103.599 45.2243 105.499 45.3383 105.499ZM102.493 147.187C101.733 147.567 100.973 147.795 100.327 148.289C100.099 148.479 100.023 148.859 99.7951 149.011C99.3391 149.277 98.731 149.087 98.275 149.315C97.515 149.695 96.9829 150.228 96.0709 150.57C94.7803 151.113 93.5239 151.735 92.3087 152.432C90.1706 153.523 87.976 154.499 85.7344 155.358C84.6323 155.814 81.5541 156.688 81.6681 158.322C81.4021 158.398 81.1741 157.828 80.6421 157.904C79.9201 157.98 78.97 158.778 78.248 159.006C76.8799 159.386 75.7778 159.424 75.7778 161.172C75.3218 160.868 75.2078 160.146 74.6378 160.032C73.9917 159.918 73.6877 160.64 73.1557 160.868C72.5477 161.134 71.7496 160.868 71.1416 161.172C70.8633 161.455 70.5578 161.709 70.2296 161.932C69.9005 161.977 69.5661 161.964 69.2415 161.894C67.9494 162.16 66.7334 162.654 65.4033 162.92C64.1112 163.186 63.2372 163.262 63.7692 164.782C62.4011 165.048 62.0591 163.604 60.5391 164.136C58.6974 164.758 56.819 165.266 54.9148 165.656C53.9267 165.846 52.8627 166.302 51.8366 166.416C51.1146 166.492 50.4305 166.226 49.7085 166.302C48.8344 166.416 48.1504 166.796 47.2764 166.796C46.4227 166.764 45.5721 166.675 44.7302 166.53C44.8434 166.864 44.9965 167.183 45.1863 167.48C44.6162 167.366 44.3502 166.682 43.8562 166.568C43.3622 166.454 42.9061 166.986 42.4501 166.872C42.2601 166.834 42.3741 166.264 42.0701 166.15C41.7661 166.036 41.6521 166.15 41.3481 166.112C41.2341 166.112 40.018 166.036 39.828 166.15C39.486 166.34 39.828 166.682 39.752 166.72C38.6119 167.556 38.5739 167.1 38.0799 166.226C37.3199 164.934 36.4078 165.732 35.0397 165.504C33.5197 165.238 32.3036 165.922 30.8215 165.808C29.1874 165.694 27.3253 164.478 25.8813 163.794C22.8031 162.274 19.8009 160.83 17.2168 158.512C12.1625 153.99 8.02034 148.441 5.58821 142.095C2.96607 135.255 2.47205 128.148 2.70006 120.89C2.78731 116.535 3.18097 112.193 3.87812 107.893C4.33415 104.929 4.44815 99.6849 7.79232 98.3168C8.36235 105.233 6.53826 112.302 7.71632 119.218C8.05834 121.308 8.89438 124.044 10.4905 125.602C12.8466 127.882 13.3786 124.576 13.6066 122.79C13.9866 119.408 14.7467 116.064 15.2407 112.72C15.7727 109.375 16.1148 105.955 16.8368 102.649C17.1028 101.433 19.2309 92.5785 20.789 92.9965C20.485 99.4569 19.6489 105.803 19.6109 112.264C19.6109 114.848 19.3829 117.584 19.7249 120.168C19.915 121.498 21.131 125.374 23.2211 125.07C25.1592 124.766 23.0311 122.03 22.8411 120.966C22.3471 118.154 22.9551 114.696 23.4111 111.884C24.2472 106.639 26.1093 101.243 29.1874 96.8347C31.9236 92.8825 36.1418 89.1583 41.2341 89.8424C43.4002 90.1464 45.1103 90.6784 46.2123 92.6545C47.0864 94.2126 50.4305 95.9987 48.4924 97.9368C46.7063 99.7229 43.8182 98.2788 41.8421 97.8608C40.6285 97.6214 39.3788 97.6327 38.1698 97.8941C36.9608 98.1555 35.818 98.6615 34.8117 99.3809C31.3535 101.813 29.3394 106.183 28.6934 110.249C27.8194 115.76 30.1375 130.162 38.7259 126.932C44.4262 124.804 48.7204 117.052 48.2264 111.161C48.0364 108.805 47.1244 104.321 50.3925 103.675C54.5727 102.839 55.1808 107.475 54.7628 110.477C54.1547 114.848 51.8366 118.914 49.1765 122.372C46.8583 125.374 44.1982 127.274 41.4241 129.744C40.588 130.466 38.4979 132.139 38.8779 133.507C39.258 134.989 42.5641 135.445 43.8562 135.673C50.3545 136.889 57.7269 135.787 64.2252 134.913C77.6019 133.165 90.7886 128.832 101.733 120.928C102.189 125.83 102.721 130.733 102.949 135.635C103.063 138.029 103.063 140.461 103.329 142.817C103.557 144.337 104.165 146.351 102.493 147.187ZM65.4413 164.288C64.9093 164.554 65.4793 162.92 65.3273 163.452C66.1253 163.718 66.1633 164.022 65.4413 164.288ZM120.886 104.929C121.722 104.017 124.002 101.813 124.724 103.903C124.99 103.029 125.028 101.699 126.054 102.915C126.472 101.433 131.033 101.585 132.135 101.509C135.745 101.319 139.393 101.205 142.965 100.825C150.376 100.103 157.9 100.483 165.31 100.445C166.921 100.382 168.534 100.432 170.137 100.597C171.695 100.825 173.291 101.471 174.849 101.205C176.255 101.015 177.167 100.597 178.611 100.787C180.314 100.997 182.026 101.111 183.741 101.129C191.418 101.091 199.094 101.395 206.771 101.433C208.253 101.433 210.077 101.129 211.445 101.775C211.977 102.003 212.547 102.801 212.927 102.877C213.383 102.991 213.117 102.269 213.725 102.573C214.523 102.991 213.915 104.321 213.383 104.549C213.687 104.435 212.813 104.283 212.889 104.283C212.471 104.321 212.091 104.625 211.635 104.625C210.951 104.587 210.343 104.169 209.773 103.789C209.773 103.941 210.077 104.967 209.735 105.005C209.431 105.043 209.127 104.055 209.127 103.789C207.417 105.309 205.593 104.473 203.464 104.663C201.944 104.815 198.79 105.803 197.764 104.245C197.728 104.576 197.581 104.884 197.346 105.119C197.042 105.575 196.776 105.537 196.548 105.005C196.472 105.005 195.75 105.157 195.712 105.157C195.18 105.119 194.534 104.929 194.002 104.891C193.204 104.815 193.356 105.423 192.672 105.423C192.33 105.423 191.418 104.929 190.81 104.891C189.746 104.853 188.644 105.271 187.58 105.157C186.858 105.081 186.212 104.473 185.49 104.435C184.615 104.397 184.311 105.081 183.627 104.131C183.475 104.093 183.399 104.663 183.323 104.663C183.323 104.663 182.639 104.777 182.563 104.777C182.291 104.895 182.012 104.997 181.727 105.081C181.385 105.081 181.157 104.815 180.777 104.815C180.131 104.815 178.155 105.347 178.193 104.207C175.951 105.043 174.013 104.701 171.733 104.929C170.815 104.987 169.893 104.91 168.997 104.701C167.743 104.473 166.907 104.777 165.652 104.815C164.436 104.891 164.056 104.359 163.03 103.903C162.612 103.713 162.346 103.485 161.852 103.599C161.586 103.675 161.776 104.131 161.7 104.169C161.282 104.321 160.978 104.169 160.37 104.207C159.268 104.283 158.85 105.195 157.71 104.321C158.09 104.283 158.47 104.245 158.85 104.169C157.786 103.713 156.342 103.485 156.608 105.157C155.696 105.043 156.494 104.397 156.038 104.169C155.582 103.941 155.088 104.321 154.518 104.511C152.998 105.005 151.744 104.739 150.186 104.663C148.4 104.549 144.219 106.031 142.965 104.131C142.927 104.511 142.509 105.651 141.939 105.575C141.749 105.575 142.281 104.397 142.319 104.245C142.015 104.853 140.685 105.005 140.039 105.309C140.115 104.967 140.191 104.625 140.267 104.321C139.659 104.967 139.355 104.587 138.633 104.777C138.329 104.891 137.873 105.537 137.607 105.575C137.473 105.397 137.291 105.26 137.083 105.179C136.875 105.099 136.648 105.078 136.429 105.119C136.117 105.05 135.795 105.037 135.479 105.081C134.225 105.157 133.085 105.879 131.831 105.385C130.729 104.967 130.311 103.903 129.665 105.613C129.513 105.309 129.323 105.005 129.171 104.701C128.943 105.043 128.753 105.347 128.525 105.689C127.689 105.157 127.651 104.853 126.7 105.043C126.59 105.084 126.472 105.102 126.355 105.095C126.237 105.089 126.122 105.058 126.016 105.005C125.978 105.157 125.902 105.347 125.864 105.499C125.826 105.917 125.712 106.069 125.484 105.917C125.307 105.839 125.141 105.736 124.99 105.613C124.382 105.651 123.584 105.841 122.9 105.727C122.634 105.651 121 104.815 120.886 104.929ZM140.039 93.7186L140.267 94.0606C139.241 94.5926 139.013 94.2886 138.899 93.2246C139.393 93.2246 139.469 94.0986 140.039 93.7186ZM140.647 93.1105C141.141 93.3386 141.711 93.7566 142.167 93.1865C142.471 94.0606 140.153 95.3147 140.647 93.1105ZM143.801 93.4906C144.827 94.1746 142.357 93.6426 142.357 93.6426C142.539 93.4477 142.786 93.3251 143.051 93.2972C143.316 93.2693 143.583 93.3379 143.801 93.4906ZM152.656 89.6144C152.998 91.4005 153.986 91.3245 155.544 90.5264C157.824 89.3103 158.204 87.3343 158.394 84.9781C158.546 82.736 158.812 81.862 161.168 82.318C162.802 82.66 164.17 82.356 165.805 82.318C167.553 82.28 168.161 82.546 168.313 84.3321C168.465 86.1182 168.769 87.4863 170.099 88.8923C171.429 90.2984 173.215 91.1344 174.925 91.8945C175.799 92.3125 176.635 92.7305 177.623 92.8065C178.003 92.8445 179.979 92.5785 180.017 93.2246C180.055 93.6806 177.319 95.0106 177.015 95.2007C175.76 95.9142 174.435 96.4999 173.063 96.9487C169.871 97.8988 166.489 97.9748 163.144 97.8988C157.786 97.8228 150.414 95.5427 147.222 90.7924C149.008 90.4124 150.832 90.0324 152.656 89.6144ZM152.162 74.2616C151.326 73.5395 150.756 72.4755 150.072 71.6394C149.815 71.3191 149.49 71.0596 149.122 70.8794C148.78 70.6514 148.552 70.9554 148.286 70.4614C147.526 69.0933 149.882 67.1932 147.374 66.6612C146.538 66.4712 144.485 67.1552 144.257 65.9391C143.915 64.2291 147.184 64.115 147.944 63.241C149.464 61.4929 148.438 58.5668 149.388 56.5907C150.262 54.6906 152.542 54.3485 154.366 53.7785C156.874 52.9805 159.42 52.5244 161.966 51.8784C163.752 51.4224 166.717 49.6363 168.351 51.2324C165.805 51.8024 167.287 52.6765 168.997 53.1705C170.947 53.696 172.946 54.0145 174.963 54.1205C177.016 54.3302 179.088 54.2535 181.119 53.8925C182.981 53.5125 185.072 51.8784 187.048 52.2964C185.946 54.1965 182.715 55.2226 180.739 55.7166C179.751 55.9826 179.105 55.9066 179.219 57.1607C179.333 58.3767 180.397 59.5928 180.663 60.8469C180.933 62.4647 180.736 64.126 180.093 65.6351C179.523 67.1932 179.371 67.3832 179.865 68.8653C180.663 71.1834 178.953 73.7295 177.357 75.4016C170.897 82.204 158.622 79.6578 152.162 74.2616ZM170.479 50.8524C170.213 51.0424 168.693 51.4604 168.731 50.8524C168.845 50.0543 170.213 50.3583 170.479 50.8524ZM173.975 34.6255C173.633 34.3595 172.607 34.4735 173.329 33.4475C173.595 33.9035 173.785 34.2455 173.975 34.6255ZM149.806 28.2032C150.312 27.0528 150.706 25.8566 150.984 24.631C151.098 23.833 150.87 22.9589 151.934 22.8449C150.528 22.2369 150.528 19.8428 150.452 18.5887C150.338 16.8786 149.806 14.5985 150.566 13.0024C151.326 11.3683 152.39 11.4063 152.694 13.3444C152.808 14.1045 152.352 14.3705 152.276 14.9025C152.086 15.9666 152.466 15.7385 153.112 14.9405C153.378 15.7385 153.492 16.9926 154.632 16.9166C154.556 16.6886 154.138 16.1946 154.252 15.9286C154.48 15.5105 155.582 16.1566 155.696 16.2326C156.684 16.9166 156.912 17.5626 156.19 18.4367C157.178 18.5507 156.342 19.4247 156.988 19.6147C157.976 19.9568 157.292 18.3227 157.216 18.0567C157.699 18.2405 158.112 18.5732 158.394 19.0067C158.619 19.322 158.822 19.6521 159.002 19.9948C159.192 20.6408 159.61 20.7928 160.256 20.4888C161.51 20.8688 163.258 20.8308 164.398 21.5148C164.93 21.8189 165.082 22.5029 165.538 22.7689C166.033 23.0729 166.679 22.9209 167.211 23.1109C167.021 23.5289 167.173 23.795 167.667 23.795C168.057 23.8291 168.441 23.9187 168.807 24.061C169.076 23.86 169.37 23.694 169.681 23.5669C169.717 23.6498 169.771 23.7236 169.839 23.7833C169.908 23.843 169.988 23.887 170.075 23.9124C170.162 23.9377 170.253 23.9437 170.343 23.93C170.432 23.9163 170.517 23.8832 170.593 23.833C171.537 24.0005 172.403 24.4667 173.063 25.163C173.709 25.7711 173.177 25.8091 173.899 25.7331C174.203 25.6951 174.697 25.201 175.381 25.315C175.76 25.3887 176.129 25.5033 176.483 25.6571C176.638 25.8195 176.846 25.9205 177.07 25.9415C177.293 25.9624 177.517 25.9019 177.699 25.7711C178.383 26.1131 178.459 26.7211 179.333 26.7971C180.283 26.8731 179.979 25.6951 180.625 27.3671C181.499 25.6191 181.841 28.4312 182.715 28.6592C183.665 28.8872 183.741 28.1272 184.539 28.9632C184.767 29.2292 184.767 29.6093 185.033 29.8753C185.49 30.2933 186.06 30.2173 186.478 30.8253C186.25 30.4833 186.516 32.0034 186.516 31.9274C186.592 32.5734 185.984 33.3335 187.2 33.2574C187.2 33.3335 186.592 34.1695 186.516 34.0555C186.478 33.9415 186.478 33.8655 186.44 33.7515C186.326 33.7895 186.25 34.6255 186.288 34.7395C186.402 34.7395 186.44 34.6635 186.402 34.5115C186.212 35.1195 186.516 35.5376 186.136 36.1076C185.908 36.4876 185.224 36.7536 184.881 36.9816C184.045 37.5517 183.209 38.0837 182.373 38.6917C180.435 40.0598 178.269 41.7319 175.837 42.0359C177.053 40.8198 184.121 36.2976 180.587 34.9675C179.756 34.7139 178.904 34.5359 178.041 34.4355C177.205 34.3595 176.293 34.8535 175.381 34.5495C174.241 34.1695 174.659 33.1054 173.975 32.7254C172.493 31.9274 172.835 33.8275 172.379 34.3215C171.885 33.8275 171.999 33.5615 171.239 33.5235C170.441 33.4855 170.289 34.2075 169.377 33.7515C168.123 33.1434 168.769 31.8894 167.021 31.8894C167.059 31.6234 167.325 30.8633 166.983 30.6353C166.527 31.2433 166.869 31.8894 166.451 32.4594C166.182 32.7663 165.823 32.9793 165.424 33.0674C164.626 33.2955 164.512 33.7135 164.664 32.4974C164.094 33.5615 162.27 33.1054 161.206 33.0294C159.425 32.8657 157.666 32.5089 155.962 31.9654C154.442 31.4334 153.606 30.5593 152.352 29.7613C151.858 29.4573 151.63 29.5713 150.946 29.3813C150.148 29.3813 149.464 29.0012 149.806 28.2032ZM153.454 9.54422C153.72 9.39222 153.91 11.7483 153.568 12.1664C152.998 11.2543 151.972 9.92424 153.454 9.54422ZM154.29 8.59417C155.126 7.83414 154.556 9.81024 154.404 10.1143C154.1 9.92424 153.796 9.69623 153.454 9.50622C153.834 9.31621 153.948 8.89819 154.29 8.59417ZM186.022 5.44001C193.812 7.0741 201.488 10.1143 207.721 15.1305C213.383 19.6907 217.411 26.1891 219.653 33.0674C221.971 40.2118 221.211 48.1542 215.663 53.6645C212.737 56.5527 208.899 58.3007 205.213 59.9728C203.464 60.7709 201.64 61.4549 199.854 62.253C198.6 62.823 197.042 63.735 195.598 63.583C196.32 62.823 197.422 62.785 198.296 62.329C199.36 61.7589 200.272 60.6569 201.184 59.8588C202.096 59.0608 204.148 56.5907 205.593 57.1987C205.403 55.8686 206.885 55.2606 207.569 54.4245C208.291 53.5125 208.329 52.4484 209.659 52.1444C208.253 51.0424 208.671 48.9523 208.975 47.4702C209.33 45.5991 209.571 43.7082 209.697 41.8079C209.963 38.2737 210.191 33.7895 208.253 30.6733C207.607 29.6473 206.809 28.7352 206.239 27.7092C205.555 26.4551 205.707 25.353 205.707 23.947C204.453 24.783 204.186 23.0729 203.692 22.2369C203.312 21.6288 202.78 21.2488 202.666 20.4888C202.59 19.9188 203.198 19.8048 202.856 19.2347C202.438 19.5387 202.286 20.0328 202.058 20.4888C201.678 20.3368 202.134 19.8048 201.906 19.6147C201.906 19.6147 201.146 19.2727 201.184 19.3487C200.69 18.7407 200.538 17.7526 200.31 17.0306C199.436 17.4866 199.588 17.4106 198.638 16.6886C198.231 16.4366 197.86 16.1297 197.536 15.7765C197.156 14.8645 197.802 15.3965 197.65 14.8265C197.118 13.1924 194.154 13.4964 193.888 11.0643C192.444 11.9763 191.874 10.6843 191.038 9.73423C190.164 8.78418 188.682 8.40416 188.758 6.92209L187.39 7.37811C187.618 5.97204 185.566 6.08604 184.805 5.36401C185.212 5.35279 185.619 5.37823 186.022 5.44001ZM187.2 91.7425C187.922 91.0964 187.694 91.9705 188.15 91.8565C188.53 91.7805 188.606 91.4765 188.986 91.3625C190.544 90.9824 192.9 91.4765 194.534 91.3625C196.434 91.2865 199.702 91.6665 200.614 93.9086C201.146 95.2387 200.31 94.7826 199.398 94.7066C198.713 94.694 198.028 94.7194 197.346 94.7826C197.005 94.8206 196.661 94.8206 196.32 94.7826C196.165 94.674 196.057 94.5113 196.016 94.3266C195.028 94.1746 194.002 94.7446 192.9 94.7826C191.456 94.8206 190.164 94.5546 189.062 93.5666C188.606 94.2126 188.34 94.5546 187.542 94.6306C187.504 94.6306 186.744 94.3266 186.63 94.2886C186.478 94.2506 186.06 94.5926 185.756 94.4786C186.326 93.5666 186.402 92.4645 187.2 91.7425ZM286.423 99.4949C286.689 98.6208 286.879 97.7088 287.145 96.7967C290.717 100.863 293.871 106.335 295.277 111.58C296.189 115 297.633 121.156 293.263 122.904C289.691 124.348 287.715 119.218 286.803 116.672C284.789 111.123 284.789 105.157 286.423 99.4949ZM125.978 35.5376C126.016 35.5376 123.66 36.9056 124.42 35.8036C124.724 35.3476 125.94 35.0435 126.434 35.0435L125.978 35.5376ZM123.736 36.1456C123.47 36.3736 123.204 36.6016 122.9 36.8296L122.102 35.5756C122.596 35.3096 124.838 35.1575 123.736 36.1456ZM122.064 78.9358C121.57 78.5938 121.19 78.7838 121.038 79.3538C121.038 78.7838 121.342 77.4917 121.76 77.3397C122.064 77.2257 120.81 75.7436 121.152 75.3636C122.064 75.8577 121.494 76.3517 121.76 77.0357C121.874 77.3397 122.216 77.6057 122.33 77.8338C122.444 78.2138 122.976 79.5818 122.064 78.9358ZM119.632 75.5916C119.138 75.7056 120.012 76.5417 120.012 76.9217C120.012 77.1877 119.67 77.4157 119.518 77.7958C119.214 78.6318 119.746 79.2018 118.872 79.8099C118.872 77.9858 117.656 73.1595 120.012 72.2855C118.872 71.3734 119.822 70.3474 120.696 71.4114C121.57 72.4755 121.038 75.2496 119.632 75.5916ZM118.416 68.4093C117.96 66.7752 116.554 66.2052 114.996 66.3192C115.072 65.4831 115.68 64.2671 116.136 65.7871C116.326 65.3311 116.44 64.7611 116.896 64.4571C117.618 66.7372 121.228 67.9912 118.986 70.4234C118.758 69.7773 118.606 69.0933 118.416 68.4093ZM114.198 66.4332C105.837 67.0412 94.1328 68.7893 87.4444 62.367C83.0742 58.1867 83.3402 51.6884 86.8364 47.0522C88.8505 44.392 91.5867 42.5299 94.3228 40.7818C95.2897 40.1396 96.3376 39.6284 97.439 39.2618C97.624 39.2403 97.811 39.2804 97.971 39.3758C98.0013 39.2433 98.0615 39.1196 98.1472 39.0142C98.2329 38.9088 98.3416 38.8245 98.465 38.7677C98.921 38.5397 99.5671 38.4257 99.8331 37.9317C99.5791 38.8787 99.4012 39.8445 99.3011 40.8198L98.617 40.0218C98.427 41.8079 96.5649 40.7058 95.4629 40.9338C96.1849 41.9219 96.7169 42.3019 96.7549 43.632C96.2229 42.6439 95.0828 41.9599 94.0188 41.6559C94.5888 43.328 95.0068 44.354 94.4368 46.2161C93.7528 45.8361 93.7148 44.8861 92.8407 44.658C92.6127 45.7601 92.5747 46.9762 92.3087 48.0402C90.1426 47.0522 90.3706 49.7123 91.2446 51.0044C91.7007 51.6884 91.9287 52.5244 92.3467 53.1705C93.3728 54.8046 92.5747 52.3724 93.7148 52.4864C93.4488 54.2345 93.3728 54.3865 94.6268 55.6406C95.8809 56.8947 96.4889 58.6048 97.819 59.7448C98.199 59.2508 97.591 58.7568 97.553 58.2627C98.769 58.4528 99.3771 59.7068 100.555 58.6048C101.087 59.5928 101.619 60.7329 102.873 60.9229C102.075 59.3648 104.431 60.4289 105.039 60.6569C105.495 60.8089 106.331 60.9609 106.521 61.0369C107.547 61.4169 106.825 60.7329 107.433 61.9489C108.346 61.6829 108.688 60.9229 109.752 61.5689C110.626 62.0629 110.626 62.975 110.816 63.849C111.006 63.279 111.234 62.671 111.462 62.1009C111.69 62.2149 112.678 63.279 112.564 63.279C114.958 63.165 114.882 64.6091 114.198 66.4332ZM102.493 37.1336C102.949 36.7916 103.519 37.2477 104.051 37.1336C104.773 36.9816 105.191 36.3736 105.989 36.2976C105.761 37.0196 105.343 36.9436 105.001 37.5137C104.887 37.7037 104.925 38.1597 104.849 38.2737C103.937 39.1858 103.633 38.4257 102.721 37.7417C102.797 38.5777 102.949 38.8437 102.189 39.0718C101.467 39.2618 100.289 38.5397 99.9091 37.9317C100.175 37.3237 101.923 37.5137 102.493 37.1336ZM108.232 35.8036C109.03 35.8796 108.08 38.1597 106.939 35.9556C107.365 35.8653 107.797 35.8144 108.232 35.8036ZM112.222 35.3856C113.438 35.1195 117.542 33.9795 117.998 35.8796C118.074 35.8416 118.378 34.7395 118.53 34.8915C119.1 35.4236 119.176 36.1076 119.1 36.8676C118.416 35.4236 118.644 36.6776 118.188 36.6016C118.074 36.5636 117.884 36.7916 117.58 36.7156C117.162 36.6016 116.896 35.7276 116.63 35.4616C116.212 36.0696 115.68 36.8296 114.844 36.7916C114.236 36.7536 113.286 35.1955 114.046 36.9056C113.59 36.7536 113.058 36.4116 112.564 36.4876C111.994 36.5636 111.69 37.1337 111.158 37.2097C109.98 37.3997 109.79 36.2596 109.03 35.6516C110.094 35.5376 111.196 35.5756 112.222 35.3856ZM119.67 35.3476C119.746 34.9675 120.848 34.8155 121.114 34.9295C121.798 35.2336 121.532 35.6516 121.418 36.2976C120.924 36.0696 120.43 35.8416 119.936 35.5756C120.658 36.7916 119.328 36.9436 119.67 35.3476ZM327.883 105.195C327.807 102.345 327.731 99.4189 326.971 96.6447C326.477 94.7066 325.223 91.2105 322.867 90.8684C319.332 90.3744 317.356 97.3668 316.368 99.7989C316.178 96.9487 316.33 93.9466 315.266 91.2485C314.392 89.0823 312.226 87.0302 310.364 89.4624C308.692 91.6285 308.388 94.8206 307.932 97.4048C307.362 100.749 307.02 104.169 306.602 107.551C304.968 104.397 304.702 100.825 303.41 97.5568C302.194 94.4786 300.293 91.5525 298.469 88.8163C296.987 86.5742 295.163 84.4841 292.807 83.116C290.755 81.938 287.183 80.6459 285.245 82.622C283.611 84.2561 283.877 86.4602 283.953 88.5503C283.991 89.4624 284.143 90.1084 283.307 90.5644C282.889 90.7924 282.281 90.6784 281.824 90.7924C281.143 90.9909 280.509 91.3272 279.962 91.7805C275.744 94.8966 273.806 100.521 273.236 105.537C272.476 111.884 274.946 117.356 277.074 123.17C277.416 124.082 278.48 126.058 278.328 127.084C278.176 128.224 276.732 128.262 275.782 128.262C272.838 128.294 269.894 128.154 266.966 127.844C260.087 127.198 253.247 123.892 247.091 120.928C245.951 120.396 244.393 120.092 243.481 119.218C242.606 118.42 242.378 117.128 241.656 116.216C239.832 113.974 238.654 112.074 235.994 110.705C233.258 109.337 230.484 108.045 227.786 106.525C224.48 104.663 221.439 102.269 218.285 100.179C212.395 96.3027 206.581 92.0085 200.348 88.7023C197.46 87.1822 194.23 86.9162 191.19 85.6622C188.264 84.4461 184.653 84.4461 181.613 85.2061C180.131 85.5862 179.105 86.4602 177.737 87.0682C176.141 87.7523 174.811 86.9922 173.405 86.1942C171.239 84.9401 169.111 82.926 172.189 81.558C173.215 81.1019 174.545 80.9119 175.457 80.2279C176.445 79.4678 177.205 78.0618 178.003 77.0737C179.751 74.9456 180.815 72.4755 183.361 71.1454C186.212 69.6633 189.556 69.2833 192.596 68.3333C195.864 67.3072 199.094 66.0531 202.286 64.8371C208.101 62.671 214.105 60.3148 218.285 55.4886C221.895 51.3464 223.453 45.9881 223.301 40.5538C222.997 29.4573 217.069 18.1707 208.519 11.2163C198.03 2.70387 184.729 -0.146278 171.505 0.00573C165.31 0.0817339 157.9 0.879775 152.694 4.64197C148.21 7.91014 147.488 13.6104 148.134 18.7407C148.4 20.8308 149.312 23.5669 147.868 25.429C147.032 26.4551 145.549 26.7211 144.447 27.3671C143.041 28.1652 141.825 28.9632 140.229 29.3813C133.503 31.2053 126.472 30.5593 119.594 30.4453C108.156 30.2933 96.4509 33.3715 87.9385 41.4279C81.0601 47.9262 79.008 60.2008 87.3684 66.5092C94.1328 71.6394 104.773 71.0694 112.792 70.1574C115.262 69.8913 116.972 69.4733 116.972 72.5135C116.972 75.8197 116.44 79.2778 117.276 82.546C118.606 87.6763 123.546 87.7903 127.879 86.6882C130.165 86.074 132.401 85.2863 134.567 84.3321C137.759 83.002 140.685 81.0259 143.877 79.6579C146.005 78.7458 147.64 81.672 149.54 79.6579C149.882 79.2778 149.958 78.7078 150.49 78.5178C151.326 78.2138 152.694 79.2778 153.454 79.6198C154.556 80.1139 155.658 80.4939 156.076 81.71C156.494 82.85 156.304 84.6361 155.924 85.7382C155.088 88.1703 152.808 87.6763 150.718 87.5243C147.07 87.2582 143.459 86.6502 139.849 86.3842C136.581 86.1562 133.541 87.1442 130.729 88.7403C124.838 92.1225 119.974 97.4808 114.882 101.889C112.26 104.169 109.714 106.601 106.825 108.615C105.571 109.489 104.241 110.249 103.139 111.352C102.075 112.416 101.961 113.366 101.581 114.772C100.935 117.28 97.667 118.534 95.6529 119.826C92.7815 121.626 89.7074 123.08 86.4944 124.158C79.7164 126.538 72.7501 128.343 65.6693 129.554C62.1731 130.162 58.715 130.58 55.1808 130.923C52.1406 131.227 48.9105 132.139 45.8703 131.379C46.7443 129.972 48.3024 129.098 49.5185 127.996C51.0643 126.558 52.4297 124.938 53.5847 123.17C55.8648 119.788 57.4989 116.178 57.8409 112.074C58.1829 108.387 57.8029 103.979 55.5608 100.863C54.8008 99.7989 53.2807 99.4949 52.5966 98.5068C51.9126 97.5568 52.1786 95.8847 51.7986 94.7446C50.8486 91.8945 47.9984 88.3603 45.5283 86.6882C42.8301 84.9021 38.8779 84.2181 35.7618 85.1681C29.9855 86.9162 26.4133 93.0725 23.7912 98.0888C22.3471 95.0486 24.7792 90.5264 21.9291 88.0563C19.5349 85.9662 17.6728 90.0324 16.8748 91.7805C13.1506 99.9509 12.2766 108.615 10.7185 117.356C10.0724 116.71 10.4145 115.114 10.4525 114.354C10.5665 112.948 10.5665 111.58 10.5665 110.173C10.5665 106.639 11.2505 103.067 10.9465 99.5329C10.7565 97.4808 10.1104 93.1865 7.14629 93.8326C4.63816 94.4026 3.04208 97.9748 2.24404 100.141C1.10398 103.257 0.837965 106.373 0.913969 109.679C0.989973 113.328 0.305937 116.938 0.115927 120.586C-0.22609 127.654 0.115927 134.685 2.13003 141.525C4.78116 150.144 9.965 157.765 17.007 163.398C24.0491 169.03 32.6233 172.412 41.6141 173.105C45.1103 173.333 48.4544 172.915 51.9126 172.573C55.3328 172.231 58.753 172.041 62.1351 171.623C69.6975 170.711 77.0699 168.316 83.9483 165.086C87.5584 163.376 90.9786 161.324 94.5128 159.5C95.9569 158.778 96.9069 157.866 98.123 156.84C99.3391 155.852 99.6811 155.776 101.049 155.776C100.631 154.712 101.809 154.37 102.341 153.686C102.297 154.013 102.272 154.343 102.265 154.674C102.683 153.8 103.025 153.8 103.367 154.712C103.709 153.724 103.975 152.698 104.355 151.748C105.913 152.546 105.799 154.446 107.89 153.04C109.6 151.9 111.196 150.57 112.982 149.467C117.01 146.921 120.468 143.653 124.496 141.145C124.496 143.577 124.686 146.047 124.344 148.479C124.04 150.798 123.166 152.926 122.482 155.168C121.228 159.234 121.114 163.604 119.746 167.632C119.176 169.304 117.656 170.711 117.238 172.345C116.782 174.017 117.808 175.347 116.098 176.411C114.882 177.171 113.4 177.513 112.07 177.969C110.018 178.691 108.118 179.679 106.141 180.515C96.8689 184.505 87.7865 188.533 79.198 193.892C71.0276 198.984 62.7432 204.228 55.2568 210.233C48.7584 215.477 42.1841 222.241 40.588 230.754C39.0679 239.038 43.1341 247.931 51.3806 250.629C55.6748 252.035 60.501 251.883 64.9473 251.921C69.7355 251.997 74.8278 250.819 79.54 249.983C84.5183 249.109 89.4205 247.703 94.3988 246.943C99.187 246.182 103.595 244.51 108.27 243.446C113.286 242.344 118.416 241.736 123.47 240.748C125.75 240.292 127.955 239.646 130.235 239.228C132.743 238.772 135.251 238.62 137.721 238.012C142.509 236.834 147.108 234.972 151.896 233.87C154.062 233.376 156.19 232.73 158.356 232.274C160.332 231.856 161.89 230.716 163.904 231.666C165.5 232.426 166.793 233.68 168.313 234.554C170.289 235.694 172.379 236.72 174.431 237.708C178.573 239.684 182.867 241.09 187.2 242.572C191.76 244.13 196.206 245.916 200.956 246.98C205.783 248.045 210.723 248.349 215.587 249.185C225.493 250.868 235.523 251.72 245.571 251.731C250.701 251.769 255.793 251.161 260.923 251.237C265.446 251.313 269.36 252.301 273.502 249.907C280.114 246.068 287.753 240.292 287.601 231.894C287.449 224.293 282.889 217.035 278.594 211.031C273.388 203.734 265.978 198.604 258.719 193.588C250.967 188.229 242.302 184.543 234.132 179.869C229.99 177.475 226.152 174.891 221.629 173.219C219.463 172.421 217.373 171.471 215.245 170.597C213.535 169.913 211.065 169.495 209.583 168.354C208.671 167.632 208.595 166.53 208.329 165.428C207.75 163.064 207.013 160.74 206.125 158.474C204.586 154.03 203.479 149.449 202.818 144.793C202.172 140.347 200.728 135.711 201.488 131.189C206.353 135.901 211.369 140.461 216.385 145.021C218.247 146.731 220.109 148.517 221.971 150.228C223.377 151.52 225.164 153.42 227.102 153.8C229.61 154.294 228.698 151.52 230.408 151.064C231.472 150.798 234.626 153.496 235.462 154.028C240.744 157.372 246.597 159.5 252.411 161.78C258.491 164.174 264.762 166.302 271.336 166.91C277.427 167.427 283.56 166.808 289.425 165.086C301.053 161.78 309.642 153.99 315.912 143.881C323.095 132.443 328.301 118.952 327.883 105.195Z" fill="#2D332F"/>
<path fill-rule="evenodd" clip-rule="evenodd" d="M149.92 80.0759L149.882 80.1142C149.92 80.1142 149.92 80.1142 149.92 80.0759Z" fill="#2D332F"/>
<path fill-rule="evenodd" clip-rule="evenodd" d="M150.49 80.2279C150.442 79.8643 150.352 79.5073 150.224 79.1639C149.844 79.7719 149.502 80.0379 149.996 80.6839C150.152 80.5226 150.316 80.3703 150.49 80.2279Z" fill="#2D332F"/>
<path fill-rule="evenodd" clip-rule="evenodd" d="M177.357 167.594C177.775 167.138 177.053 166.948 176.749 166.948C176.787 167.442 176.521 168.62 177.205 168.849C177.116 168.645 177.082 168.421 177.109 168.201C177.136 167.98 177.222 167.771 177.357 167.594Z" fill="#2D332F"/>
<path fill-rule="evenodd" clip-rule="evenodd" d="M165.957 71.5634C165.235 73.0075 166.869 73.4255 167.819 72.7415C168.541 72.2094 168.959 70.8794 169.073 70.0433C169.453 67.3072 167.515 64.685 166.565 62.2149C166.299 61.5689 165.995 59.4028 165.197 59.3648C164.285 59.2888 164.208 61.3029 164.208 61.7969C164.234 63.3684 164.53 64.9239 165.083 66.3951C165.539 67.9912 166.831 69.8913 165.957 71.5634Z" fill="#2D332F"/>
<path fill-rule="evenodd" clip-rule="evenodd" d="M169.491 65.8251C172.341 68.3712 174.621 64.153 174.431 61.6449C174.393 61.0369 173.975 58.7568 172.797 59.5928C172.189 60.0108 172.721 61.3789 172.417 61.9489C171.049 64.8371 169.757 60.3528 168.807 60.0108C167.705 59.5928 167.591 61.0369 167.591 61.8349C167.6 62.5978 167.775 63.3495 168.103 64.0384C168.431 64.7272 168.904 65.3368 169.491 65.8251Z" fill="#2D332F"/>
<path fill-rule="evenodd" clip-rule="evenodd" d="M159.154 66.2052C159.838 65.1411 160.636 63.7351 160.75 62.481C160.902 60.5049 159.762 60.6949 158.812 62.063C158.128 63.051 157.634 64.6851 156.19 64.2671C154.366 63.7731 154.936 61.3029 153.91 60.1629C151.288 63.5831 156.152 70.9174 159.154 66.2052Z" fill="#2D332F"/>
<path fill-rule="evenodd" clip-rule="evenodd" d="M162.992 76.7697C164.056 76.9977 166.831 76.9217 165.88 75.2877C164.664 73.2356 160.636 76.2757 162.992 76.7697Z" fill="#2D332F"/>
<path fill-rule="evenodd" clip-rule="evenodd" d="M200.196 15.7006C200.386 15.1306 200.12 15.0165 199.664 14.5605C199.246 14.9405 199.778 15.3966 200.196 15.7006Z" fill="#2D332F"/>
<path fill-rule="evenodd" clip-rule="evenodd" d="M220.033 120.548C220.717 120.662 220.945 120.282 220.717 119.446C219.577 119.37 219.349 119.75 220.033 120.548Z" fill="#2D332F"/>
<path fill-rule="evenodd" clip-rule="evenodd" d="M181.765 31.0913C182.525 31.4333 182.259 32.1554 182.221 32.8014C182.601 32.3834 183.437 31.5854 183.095 30.9393C182.601 29.9893 181.271 30.8633 181.765 31.0913Z" fill="#2D332F"/>
<path fill-rule="evenodd" clip-rule="evenodd" d="M155.43 19.0448L155.088 18.3607C154.594 18.7407 153.872 19.7668 154.632 20.2608C154.933 19.8794 155.2 19.4725 155.43 19.0448Z" fill="#2D332F"/>
<path fill-rule="evenodd" clip-rule="evenodd" d="M164.702 25.8091C165.652 26.5691 165.196 24.251 165.158 24.061C165.044 24.327 164.208 25.4291 164.702 25.8091Z" fill="#2D332F"/>
<path fill-rule="evenodd" clip-rule="evenodd" d="M164.17 24.631L163.942 24.061C163.562 24.403 163.068 25.1631 163.714 25.5811C163.904 25.284 164.057 24.965 164.17 24.631Z" fill="#2D332F"/>
<path fill-rule="evenodd" clip-rule="evenodd" d="M170.289 32.5735L170.517 32.8015C170.821 32.1554 170.479 31.6994 169.871 31.6614C169.914 32.0009 170.06 32.3191 170.289 32.5735Z" fill="#2D332F"/>
<path fill-rule="evenodd" clip-rule="evenodd" d="M144.523 104.549C144.89 104.288 145.233 103.996 145.549 103.675C144.409 102.991 145.093 104.473 143.725 103.561C143.459 103.941 143.915 104.853 144.523 104.549Z" fill="#2D332F"/>
<path fill-rule="evenodd" clip-rule="evenodd" d="M191.95 167.328C192.368 166.682 192.444 166.682 191.874 166.188C191.38 166.986 191.418 166.796 191.95 167.328Z" fill="#2D332F"/>
<path fill-rule="evenodd" clip-rule="evenodd" d="M102.227 62.443C102.455 62.671 102.683 62.937 102.911 63.165C103.025 62.861 103.633 61.9489 103.215 61.6449C102.913 61.9426 102.582 62.2099 102.227 62.443Z" fill="#2D332F"/>
<path fill-rule="evenodd" clip-rule="evenodd" d="M110.55 64.8751C110.17 64.7991 109.296 64.5331 109.068 64.8751C109.6 65.3311 110.854 64.9131 110.55 64.8751Z" fill="#2D332F"/>
</svg>
